<svg width="499" height="557" viewBox="0 0 499 557" fill="none" xmlns="http://www.w3.org/2000/svg">
<g clip-path="url(#clip0_42_12226)">
<path d="M181.17 49.2595L179.075 50.2572C172.136 53.5614 167.17 59.6321 166.587 67.1919C166.513 68.1482 166.679 69.2665 166.897 70.7347C166.956 71.1258 167.017 71.5417 167.079 71.986C167.331 73.7898 167.612 76.2496 166.789 78.3737C165.383 82.0074 162.442 84.6286 159.954 86.8462C159.699 87.0733 159.449 87.2963 159.205 87.5157C156.408 90.0379 154.143 92.3446 153.194 95.6834L153.194 95.6835C151.242 102.551 153.183 108.829 156.101 115.683C156.576 116.8 157.082 117.939 157.598 119.099C160.148 124.837 162.933 131.104 163.404 137.825C163.467 138.729 163.571 139.858 163.688 141.135C163.953 144.012 164.286 147.638 164.38 151.112C164.45 153.659 164.399 156.259 164.094 158.615C163.795 160.925 163.223 163.239 162.092 165.048C160.466 167.647 158.431 169.518 156.401 171.058C155.393 171.822 154.367 172.52 153.4 173.172L153.179 173.321C152.279 173.928 151.437 174.495 150.631 175.089C148.9 176.366 147.488 177.657 146.453 179.308C145.434 180.933 144.687 183.057 144.537 186.122L142.04 186L144.537 186.122C144.273 191.504 145.13 196.375 147.249 200.338C149.344 204.256 152.748 207.436 157.889 209.391C158.515 209.63 159.322 209.785 160.357 209.898C161.003 209.968 161.597 210.011 162.239 210.057C162.696 210.089 163.176 210.124 163.716 210.171C165.951 210.367 168.971 210.75 171.141 212.775L171.141 212.775C172.812 214.333 174.056 216.399 175.051 218.546C176.053 220.706 176.876 223.113 177.625 225.46C177.879 226.255 178.123 227.038 178.363 227.803C179.593 231.746 180.684 235.238 182.194 237.689L182.194 237.689C189.078 248.867 197.723 255.919 207.647 264.015C209.264 265.334 210.914 266.68 212.597 268.076L215.498 270.485L212.15 272.22C207.499 274.629 203.899 278.527 200.073 282.802C199.922 282.971 199.77 283.141 199.618 283.311C196.036 287.319 192.165 291.65 187.183 294.37L185.985 292.176L187.183 294.37C179.143 298.759 169.504 302.277 159.868 305.793C155.747 307.297 151.626 308.8 147.632 310.372C134.053 315.714 121.697 321.899 113.741 331.6C107.194 339.583 104.014 349.435 100.709 359.672C100.161 361.37 99.6093 363.078 99.0384 364.791C96.6261 372.026 94.1545 379.173 91.6882 386.304C88.8118 394.622 85.9426 402.918 83.1834 411.31L87.6868 412.596L90.3242 413.35L89.33 415.906L83.2818 431.459L95.7906 435.628L97.9399 436.345L97.4378 438.554L87.8482 480.748L90.254 482.123L99.5525 437.49L100.033 435.184L102.364 435.527C110.46 436.717 118.738 439.54 126.488 442.183C128.628 442.912 130.728 443.628 132.772 444.292L181.17 49.2595ZM181.17 49.2595L180.331 47.0959C176.556 37.3648 174.501 28.3582 174.5 18M181.17 49.2595L354.5 511.048M134.573 389.595C137.028 390.639 140.116 392.033 142.163 394.642L140.196 396.185L142.163 394.642C145.365 398.724 146.048 404.396 146.087 409.562C146.106 412.205 145.954 414.873 145.803 417.331C145.79 417.535 145.778 417.737 145.765 417.938C145.626 420.191 145.5 422.223 145.5 424V427.366L142.277 426.393L89.2775 410.393L86.8324 409.655L87.6227 407.226C89.3797 401.827 91.0395 395.768 92.7931 389.366L92.959 388.761C94.7676 382.16 96.6763 375.228 98.8692 368.437C103.235 354.916 108.826 341.618 117.33 332.327C123.902 325.145 132.833 321.403 141.072 317.95C142.405 317.391 143.721 316.84 145.005 316.282C149.788 314.208 154.59 312.013 159.419 309.806C167.882 305.938 176.428 302.032 185.096 298.669L189.501 296.96L188.436 301.564C186.5 309.928 183.115 318.194 179.882 326.088C178.936 328.397 178.004 330.675 177.124 332.914L174.797 332L177.124 332.914C176.844 333.626 176.485 334.423 176.139 335.192C176.012 335.474 175.886 335.753 175.767 336.023C175.298 337.082 174.873 338.109 174.571 339.102C173.942 341.169 174.032 342.48 174.677 343.381L174.677 343.381C175.186 344.092 175.616 344.297 175.917 344.372C176.271 344.46 176.781 344.449 177.522 344.206C178.98 343.728 180.504 342.667 182.108 341.55C182.263 341.442 182.419 341.333 182.576 341.224L182.576 341.224C183.943 340.277 185.64 338.889 187.62 337.249C187.808 337.093 187.998 336.935 188.19 336.776C189.986 335.286 191.959 333.65 193.969 332.108C196.191 330.405 198.53 328.761 200.824 327.511C203.082 326.282 205.511 325.312 207.873 325.192C209.861 325.091 211.742 325.885 213.314 326.84C214.922 327.817 216.49 329.136 217.918 330.48C219.354 331.832 220.73 333.286 221.931 334.561L222.057 334.694C223.237 335.947 224.198 336.966 224.965 337.663C226.056 338.652 227.342 339.764 228.711 340.948C230.825 342.775 233.134 344.771 235.221 346.747C238.743 350.081 242.191 353.847 244.208 357.882C246.621 362.709 246.818 369.494 246.553 375.759C246.433 378.584 246.21 381.43 246.002 384.086C245.975 384.44 245.947 384.791 245.92 385.138C245.77 387.071 245.638 388.871 245.564 390.5H257.431C257.368 389.2 257.267 387.785 257.155 386.276C257.135 386.019 257.116 385.76 257.096 385.499C256.924 383.207 256.739 380.746 256.648 378.302C256.449 372.981 256.653 367.159 258.792 362.882L134.573 389.595ZM134.573 389.595C136.889 390.312 139.107 391.429 141.625 393.088L145.5 395.641V391C145.5 390.463 145.45 389.54 145.392 388.457C145.351 387.71 145.307 386.887 145.272 386.06C145.18 383.905 145.132 381.446 145.283 379.208C145.441 376.873 145.798 375.154 146.288 374.238C146.385 374.057 146.463 373.955 146.511 373.901C146.567 373.912 146.652 373.935 146.775 373.984L147.701 371.662L146.775 373.984C146.934 374.048 147.307 374.262 147.48 375.645C147.599 376.594 147.568 377.489 147.534 378.455C147.517 378.946 147.499 379.456 147.5 380.001C147.5 380.002 147.5 380.004 147.5 380.005L147.5 406V511.254C147.28 511.092 147.091 510.926 146.928 510.76C146.271 510.091 145.849 509.231 145.602 508.059C145.347 506.845 145.3 505.403 145.339 503.656C145.353 503.059 145.378 502.394 145.405 501.696C145.451 500.505 145.5 499.217 145.5 498V466C145.5 465.06 145.56 463.995 145.634 462.793L145.65 462.535C145.718 461.429 145.791 460.228 145.818 459.029C145.876 456.508 145.748 453.607 144.694 451.156L144.693 451.155C143.497 448.377 140.947 446.958 138.788 446.115C137.672 445.68 136.523 445.346 135.498 445.064C135.234 444.991 134.983 444.923 134.742 444.858C134.001 444.657 133.359 444.483 132.772 444.292L134.573 389.595ZM354.5 511.048C354.932 510.751 355.291 510.447 355.59 510.142C356.429 509.287 356.935 508.293 357.236 507.052C357.551 505.76 357.638 504.232 357.625 502.339C357.619 501.502 357.594 500.631 357.568 499.697L357.558 499.351C357.529 498.295 357.5 497.171 357.5 496C357.5 493.114 357.254 489.656 356.945 485.835C356.889 485.137 356.83 484.428 356.771 483.709C356.509 480.53 356.232 477.171 356.053 473.836C355.621 465.78 355.713 457.269 358.301 451.158L358.301 451.158C359.381 448.608 361.82 446.81 364.33 445.495C366.923 444.137 370.068 443.054 373.205 442.162C376.358 441.266 379.615 440.532 382.458 439.908C382.79 439.835 383.115 439.764 383.433 439.695C385.891 439.157 387.908 438.715 389.295 438.307C389.719 438.183 390.173 438.021 390.73 437.821C390.989 437.729 391.269 437.629 391.579 437.521C392.481 437.207 393.549 436.858 394.644 436.643C396.732 436.232 399.825 436.153 401.836 438.876L399.825 440.361L401.836 438.876C403.502 441.131 404.267 444.265 404.749 446.983C404.983 448.307 405.167 449.646 405.334 450.868L405.366 451.097C405.546 452.408 405.707 453.549 405.9 454.506C406.905 459.491 408.02 464.459 409.147 469.454L409.329 470.26C410.139 473.852 410.953 477.459 411.729 481.078C412.031 480.794 412.281 480.498 412.49 480.197C413.14 479.259 413.515 478.077 413.608 476.578C413.801 473.458 412.759 469.494 411.21 464.923C410.773 463.631 410.293 462.287 409.804 460.92C408.643 457.668 407.436 454.288 406.641 451.172C405.525 446.797 404.958 442.069 406.99 438.246C407.752 436.813 408.97 435.788 410.201 435.043C411.441 434.293 412.849 433.734 414.206 433.3C415.797 432.791 417.522 432.398 418.988 432.086C418.697 431.134 418.326 430.121 417.909 429.038C417.794 428.738 417.674 428.432 417.553 428.12C416.906 426.459 416.201 424.648 415.743 422.916C415.198 420.855 414.884 418.509 415.62 416.25C416.211 414.438 417.39 412.937 419.133 411.755C416.557 401.26 412.783 391.011 408.976 380.676C407.04 375.42 405.096 370.142 403.298 364.797L405.667 364L403.298 364.797C402.663 362.912 402.055 361.035 401.452 359.176C397.337 346.486 393.486 334.608 383.404 326.254L384.999 324.329L383.404 326.254C374.025 318.481 362.308 313.586 349.97 308.99C348.131 308.305 346.276 307.626 344.415 306.945C333.921 303.103 323.204 299.18 313.83 293.621L315.105 291.471L313.83 293.621C311.595 292.296 310.179 290.446 309.06 288.803C308.77 288.378 308.506 287.977 308.254 287.596C307.468 286.404 306.81 285.407 305.925 284.489L305.924 284.488C304 282.49 301.875 280.74 299.624 278.887C299.089 278.446 298.547 278 297.999 277.543C295.211 275.218 292.332 272.669 289.986 269.482L288.035 266.829L291.114 265.662C300.489 262.109 309.667 254.051 316.759 244.145C323.847 234.248 328.634 222.808 329.509 212.783L329.709 210.5H332C341.557 210.5 348.808 209.12 354.159 201.553L356.2 202.996L354.159 201.553C358.361 195.61 359.003 187.892 356.633 181.326C354.273 174.793 349.026 169.627 341.614 168.47L339.5 168.14V166C339.5 161.675 339.34 157.293 339.177 152.82C339.077 150.085 338.976 147.317 338.909 144.507C338.736 137.194 338.807 129.774 339.825 122.646L342.3 123L339.825 122.646C340.649 116.883 342.496 111.178 344.312 105.763C344.453 105.343 344.593 104.926 344.733 104.509C346.425 99.4796 348.025 94.7229 348.89 90.1056C349.82 85.1467 349.852 80.5713 348.309 76.2875C346.775 72.031 343.586 67.7849 337.571 63.6607L338.985 61.5988L337.571 63.6607C334.273 61.3991 330.637 60.0731 326.629 59.4724L322.419 58.8413L325.021 55.4718C329.3 49.9325 336.57 45.4622 344.504 47.0953C345.625 47.326 346.942 47.9433 348.03 48.4663C348.29 48.5913 348.549 48.7168 348.805 48.8415C349.751 49.3006 350.677 49.7504 351.606 50.1338C352.806 50.6292 353.741 50.8949 354.406 50.9317C354.716 50.9488 354.869 50.9095 354.921 50.8903L354.923 50.8895C354.947 50.8809 354.953 50.8787 354.978 50.8458C355.282 50.4547 355.335 50.2174 355.345 50.1239C355.355 50.0384 355.35 49.914 355.246 49.7035C354.99 49.1835 354.286 48.4552 352.995 47.6544C350.467 46.0867 346.994 45.028 345.585 44.7909C336.707 43.2969 329.368 46.5115 322.72 52.8142L319.416 55.9469L318.546 51.4776C317.198 44.5518 314.715 39.5476 311.512 35.907C308.31 32.2679 304.266 29.8533 299.58 28.2955C290.075 25.1358 278.231 25.5788 266.171 26.4047C247.434 27.6877 226.399 27.9805 207.652 25.3453C196.259 23.7439 184.438 21.9013 177.149 10.4949C176.671 9.74741 176.118 9.20654 175.689 8.98692C175.506 8.89336 175.42 8.89528 175.403 8.89615C175.392 8.89676 175.369 8.89906 175.328 8.91448C175.285 8.93057 175.206 8.96767 175.091 9.05297L175.091 9.05318C174.986 9.1312 174.784 9.34643 174.603 9.93323C174.421 10.5237 174.318 11.3077 174.289 12.2643C174.261 13.2084 174.307 14.205 174.367 15.2007C174.377 15.3723 174.388 15.5475 174.399 15.7241C174.449 16.5118 174.5 17.3291 174.5 18M354.5 511.048V407V381.005C354.501 380.48 354.488 379.982 354.476 379.499C354.449 378.436 354.423 377.452 354.554 376.438C354.735 375.027 355.135 374.493 355.543 374.262C355.543 374.262 355.543 374.262 355.543 374.262L354.313 372.086M354.5 511.048L356.174 373.998M174.5 18H172M174.5 18H172M172 18C172.001 28.7286 174.138 38.0439 178 48L266 23.9105C247.339 25.1884 226.5 25.4701 208 22.8696C196.472 21.2493 185.849 19.4668 179.255 9.14813C178.056 7.27301 175.868 5.35919 173.599 7.04712C171.452 8.64394 171.713 12.825 171.906 15.9184C171.955 16.7019 172 17.4157 172 18ZM354.313 372.086C360.522 368.577 360.365 381.412 360.113 387.906C359.597 388.237 359.077 388.588 358.551 388.963L360 391H362.5C362.5 390.719 362.522 390.2 362.552 389.509C362.555 389.454 362.557 389.397 362.56 389.34C365.981 387.347 369.247 386.392 373.211 386.1C372.425 387.349 370.916 388.203 368.447 389.332C368.258 389.419 368.062 389.507 367.861 389.598C367.707 389.668 367.549 389.739 367.389 389.812M354.313 372.086C351.821 373.495 351.911 377.04 351.979 379.763C351.99 380.201 352.001 380.617 352 381L354.313 372.086ZM367.389 389.812C365.416 390.526 363.512 391.57 361.449 393.037L357.5 395.846V391C357.5 390.477 357.532 389.722 357.571 388.807C357.68 386.245 357.842 382.432 357.5 378.96C357.264 376.559 356.821 374.931 356.314 374.177C356.254 374.088 356.207 374.032 356.174 373.998M367.389 389.812C369.559 389.027 371.814 388.641 374.458 388.533M367.389 389.812C364.836 390.973 361.621 392.555 359.634 395.671L359.634 395.671C357.097 399.65 356.709 405.194 356.798 410.182C356.843 412.72 357.021 415.278 357.183 417.618L357.188 417.689C357.354 420.085 357.5 422.212 357.5 424V427.138L360.559 426.437C368.83 424.541 377.059 421.821 385.136 419.152C389.378 417.75 393.578 416.362 397.721 415.114M356.174 373.998C356.261 373.981 356.266 373.997 356.207 373.985C356.101 373.962 356.096 373.916 356.174 373.998ZM374.458 388.533L397.721 415.114M374.458 388.533C373.06 389.981 371.061 390.89 369.001 391.827C366.273 393.068 363.437 394.358 361.742 397.015C358.601 401.941 359.186 410.371 359.679 417.474C359.776 418.862 359.868 420.2 359.929 421.45C359.767 421.488 359.604 421.526 359.441 421.563L360 424H362.5C362.5 423.804 362.498 423.605 362.495 423.403C369.803 421.587 377 419.207 384.183 416.832C388.453 415.42 392.719 414.01 397 412.72L397.721 415.114M374.458 388.533L397.721 415.114M329.639 345.409L327.895 343.617C328.527 343.003 328.777 341.978 328.233 339.942C327.975 338.978 327.582 337.963 327.139 336.918C327 336.589 326.847 336.239 326.693 335.884C326.394 335.199 326.088 334.497 325.858 333.903C323.717 328.377 321.585 322.738 319.457 317.111C317.525 312.001 315.596 306.899 313.668 301.9L311.743 296.91L316.806 298.633C325.324 301.533 333.645 305.398 341.795 309.184C345.565 310.936 349.3 312.67 353 314.285C354.737 315.042 356.504 315.781 358.283 316.524C368.847 320.939 379.828 325.528 387.672 335.454L385.711 337.004L387.672 335.454C392.016 340.95 394.842 347.454 397.117 353.978C398.209 357.112 399.189 360.295 400.142 363.394L400.263 363.786C401.26 367.026 402.232 370.165 403.304 373.157C405.337 378.835 407.223 384.589 409.096 390.303C409.854 392.615 410.61 394.92 411.372 397.211C411.512 397.632 411.679 398.069 411.874 398.583C411.968 398.831 412.069 399.097 412.178 399.388C412.489 400.223 412.828 401.186 413.076 402.185C413.547 404.088 413.838 406.718 412.27 408.99C410.532 411.507 407.338 412.697 404.794 413.417C403.437 413.8 402.051 414.103 400.833 414.368C399.571 414.643 398.537 414.868 397.721 415.114L329.639 345.409ZM329.639 345.409L327.895 343.618M329.639 345.409L327.895 343.618M278.758 341.45C279.459 340.711 280.346 339.637 281.434 338.32L281.751 337.937C282.953 336.484 284.336 334.825 285.791 333.261C287.239 331.705 288.825 330.17 290.453 328.989C292.034 327.841 293.929 326.824 295.961 326.717C298.281 326.594 300.685 327.43 302.87 328.525C305.102 329.643 307.39 331.178 309.55 332.78C311.718 334.388 313.832 336.119 315.699 337.648C317.603 339.207 319.196 340.511 320.432 341.375L278.758 341.45ZM278.758 341.45C276.914 343.394 274.788 345.306 272.519 347.347M278.758 341.45L272.519 347.347M272.519 347.347C271.156 348.574 269.74 349.847 268.303 351.202M272.519 347.347L268.303 351.202M268.303 351.202C264.628 354.667 260.96 358.546 258.792 362.882L268.303 351.202ZM327.895 343.618C327.341 344.157 326.889 344.331 326.534 344.388M327.895 343.618L326.534 344.388M326.534 344.388C326.147 344.449 325.656 344.403 325.008 344.171M326.534 344.388L325.008 344.171M325.008 344.171C323.772 343.729 322.539 342.859 321.104 341.847M325.008 344.171L321.104 341.847M321.104 341.847C320.885 341.693 320.661 341.535 320.432 341.375L321.104 341.847ZM146.428 373.893C146.427 373.892 146.433 373.891 146.447 373.892C146.435 373.893 146.428 373.893 146.428 373.893Z" fill="#060504" stroke="#D9D9D9" stroke-width="5"/>
<path d="M180 24C181.446 31.783 181.746 41.48 187.637 47.5702C189.765 49.7702 200.254 51.7403 199.369 55.7438C198.851 58.0844 195.334 56.6951 193.999 56.2894C187.808 54.4075 181.015 54.0457 176.214 59.1088C172.1 63.4466 169.796 72.6159 174.703 77.4005C176.383 79.0385 183.071 79.438 182.369 82.787C181.807 85.4648 170.616 85.1916 168.004 86.3634C155.455 91.9922 156.657 106.292 163 116H164C164.123 114.502 165.372 104.403 168.698 107.06C171.248 109.098 169.005 118.021 169 121V164H177C177 146.928 174.296 127.387 179.75 111C187.237 88.5045 213.096 77.9406 235 77L225 90C250.362 89.4764 268.703 69.6241 294 80C298.85 72.8107 313.238 57.8851 312.337 49C311.317 38.9364 300.381 31.4998 291 31.0401C266.386 29.8341 241.677 33.6004 217 31.9105C203.93 31.0154 192.544 26.2292 180 24Z" fill="#0C0C0C"/>
<path d="M312 52L294 80C271.07 66.9661 248.543 88.989 225 90L235 77C227.943 77.1457 220.761 78.415 214 80.4383C173.09 92.6806 177 129.374 177 164C185.82 163.707 187.592 151.816 194.015 146.468C211.132 132.213 236.836 140.653 243 162L259 163C268.658 134.684 313.826 129.613 319 164H325C325 145.741 329.34 120.962 321.687 104C318.921 97.8697 314.523 92.1923 308 89.8195C305.608 88.9495 297.414 90.6547 297.113 87.794C296.795 84.7578 300.238 81.3068 301.806 79C306.886 71.5233 316.04 61.6276 312 52Z" fill="#FBFAFB"/>
<path d="M302 88C332.77 99.8666 325 137.129 325 164H334C334 146.346 335.865 127.52 333.714 110C333.087 104.897 325.958 91.3179 327.241 87.5424C328.367 84.2271 332.307 88.9459 333.046 90.0479C336.167 94.7049 337.747 100.465 338 106C349.368 92.2276 343.522 58.7584 320.04 64.3326C312.716 66.0712 305.457 81.7904 302 88Z" fill="#0C0C0C"/>
<path d="M207 111.518C201.886 112.607 196.653 114.967 193.244 119.043C191.26 121.415 189.822 127.377 195.045 126.252C199.458 125.302 202.46 120.747 207 119.558C210.993 118.512 218.212 121.393 221.392 118.958C228.884 113.222 209.936 110.893 207 111.518Z" fill="#060504"/>
<path d="M288 111.468C285.095 112.031 276.494 116.9 283.153 119.307C288.184 121.126 293.691 117.813 299 120.457C302.285 122.093 306.547 127.907 310.681 126.338C315.685 124.44 310.064 118.192 307.981 116.532C302.504 112.171 294.888 110.133 288 111.468Z" fill="#060504"/>
<path d="M212 147.529C182.971 150.065 185.752 194.705 215 192.482C244.05 190.274 240.884 145.004 212 147.529Z" fill="#FBFAFB"/>
<path d="M288 147.61C259.124 149.268 261.135 193.753 290 192.402C319.315 191.03 317.212 145.932 288 147.61Z" fill="#FBFAFB"/>
<path d="M221.467 169C217.323 168.818 216.091 166.993 215.467 163C193.859 166.925 220.288 190.513 221.467 169Z" fill="#060504"/>
<path d="M296 168C291.936 167.814 291.293 165.842 291 162C289.27 162.275 287.604 162.451 286.034 163.318C270.773 171.743 299.401 186.451 296 168Z" fill="#060504"/>
<path d="M183 173H177C177 193.633 175.345 214.309 185.876 233C210.821 277.276 275.66 285.076 308.535 245C326.08 223.613 326 199.187 326 173H320C316.405 190.371 300.737 205.012 282 200.076C274.617 198.131 270.029 193.23 264 189C264 196.553 265.615 206.366 261.121 212.957C259.902 214.745 250.855 222.356 249.631 216.823C249.126 214.536 256.236 211.298 257.427 208.956C261.279 201.385 259.206 188.309 258.985 180C258.892 176.48 258.545 172.352 254.867 170.742C243.196 165.634 241.074 185.739 234.907 191.907C217.002 209.812 185.214 198.364 183 173Z" fill="#FBFAFB"/>
<path d="M168 205L166.397 190.279L156 183L168 184V173C144.392 173.198 144.392 204.802 168 205Z" fill="#FBFAFB"/>
<path d="M334 173V184L346 182L336.434 190.279L334 205C357.888 204.8 357.888 173.2 334 173Z" fill="#FBFAFB"/>
<path d="M280 225C280.07 244.744 249.575 238.492 238 241V243C247.177 247.416 261.811 245.661 271 241.851C278.343 238.807 282.758 234.262 291 235C290.087 229.596 285.046 226.374 280 225Z" fill="#060504"/>
<path d="M281 274C259.871 283.825 242.342 277.127 221 275C221 285.265 217.416 303.777 222.028 313C225.661 320.267 234.286 325.7 240.09 331.184C243.36 334.275 249.104 342.793 254 342.793C258.883 342.793 264.837 334.163 268 331C272.197 326.803 278.285 322.374 280.972 317C282.719 313.505 282 308.787 282 305C282 295.94 284.507 282.358 281 274Z" fill="#FBFAFB"/>
<path d="M211 279C196.318 293.051 187.746 313.971 183 334C191.307 328.874 204.426 322.29 210.397 314.535C214.648 309.013 213.63 285.267 211 279Z" fill="#FBFAFB"/>
<path d="M290 279C290 288.318 286.915 304.138 290.603 312.7C294.101 320.819 312.414 329.773 320 334C312.966 315.765 308.641 288.658 290 279Z" fill="#FBFAFB"/>
<path d="M185.498 300.955L185.428 300.182L184.753 300.565C176.845 305.064 167.875 308.405 158.821 311.778C157.101 312.419 155.378 313.061 153.659 313.712C142.914 317.781 132.326 322.209 123.691 328.984L123.691 328.984C114.259 336.387 110.865 346.245 107.283 356.652C106.809 358.028 106.332 359.415 105.837 360.806C104.506 364.548 103.03 368.367 101.527 372.242C101.447 372.447 101.368 372.651 101.289 372.856C99.8628 376.53 98.4179 380.255 97.0571 384.001C94.1845 391.91 91.6781 399.942 90.5054 407.88L90.4418 408.31L90.859 408.433L141.859 423.426L142.5 423.615V422.946C142.5 421.005 142.553 419.074 142.607 417.169L142.617 416.85C142.668 415.057 142.719 413.288 142.726 411.568C142.741 407.93 142.559 404.476 141.754 401.418C140.945 398.351 139.505 395.667 136.997 393.594C134.598 391.61 131.262 390.218 126.665 389.548C127.262 387.925 128.102 387.011 129.051 386.542C130.119 386.014 131.422 385.998 132.885 386.332C134.345 386.665 135.905 387.333 137.441 388.1C138.389 388.574 139.302 389.071 140.171 389.545C140.721 389.844 141.254 390.135 141.768 390.404L142.5 390.787V389.961C142.5 389.672 142.49 389.244 142.478 388.707C142.421 386.257 142.312 381.55 142.854 377.582C143.018 376.377 143.241 375.255 143.539 374.296C143.838 373.331 144.204 372.562 144.636 372.039C145.06 371.526 145.526 371.27 146.061 371.254C146.617 371.238 147.342 371.479 148.271 372.171L148.271 372.171C149.485 373.075 150.287 374.806 150.764 377.123C151.237 379.423 151.371 382.199 151.333 385.069C151.296 387.936 151.089 390.871 150.89 393.485C150.868 393.771 150.846 394.054 150.825 394.333C150.652 396.584 150.5 398.563 150.5 399.957V482.92C150.5 484.734 150.288 487.276 150.036 490.191L149.994 490.678C149.753 493.458 149.486 496.534 149.344 499.572C149.193 502.786 149.181 505.976 149.491 508.745C149.798 511.497 150.431 513.909 151.628 515.504C152.718 516.958 154.598 517.842 156.484 518.484C157.438 518.809 158.419 519.079 159.338 519.328C159.42 519.35 159.501 519.372 159.582 519.394C160.413 519.619 161.181 519.826 161.842 520.046L162 519.571L161.843 520.046C170.985 523.08 180.465 525.504 189.902 527.391C229.262 535.261 269.688 535.668 309.098 527.791C319.568 525.698 330.014 523.088 340.158 519.712C340.882 519.471 341.733 519.243 342.658 518.996L342.916 518.927C343.933 518.654 345.022 518.357 346.079 517.999C348.167 517.291 350.24 516.308 351.381 514.684C352.564 513 353.195 510.556 353.502 507.788C353.81 505.007 353.799 501.832 353.65 498.635C353.51 495.653 353.25 492.635 353.013 489.885C352.996 489.686 352.979 489.487 352.962 489.291C352.711 486.374 352.5 483.807 352.5 481.921V398.957C352.5 397.72 352.361 395.881 352.199 393.754C352.175 393.437 352.151 393.113 352.126 392.783C351.935 390.234 351.736 387.336 351.699 384.51C351.662 381.68 351.788 378.947 352.239 376.723C352.696 374.472 353.46 372.873 354.586 372.14L354.313 371.721L354.586 372.14C355.419 371.597 356.05 371.465 356.525 371.543C356.992 371.62 357.415 371.92 357.8 372.479C358.591 373.629 359.071 375.664 359.336 378.047C359.75 381.782 359.613 386.085 359.537 388.487C359.516 389.131 359.5 389.638 359.5 389.961V390.735L360.206 390.417C360.824 390.137 365.521 388.199 369.574 387.133C370.585 386.867 371.546 386.658 372.388 386.542C373.239 386.424 373.93 386.408 374.418 386.501C374.912 386.595 375.056 386.768 375.098 386.915C375.157 387.12 375.113 387.551 374.649 388.331C373.955 389.5 372.93 390.278 371.693 390.897C370.721 391.384 369.653 391.758 368.533 392.15C368.209 392.264 367.881 392.379 367.549 392.498C364.629 393.552 361.574 394.933 360.135 398.786C358.852 402.222 358.707 406.534 358.868 410.818C358.936 412.64 359.061 414.472 359.181 416.24C359.203 416.556 359.224 416.87 359.245 417.182C359.383 419.242 359.5 421.195 359.5 422.946V423.611L360.139 423.427L412.139 408.433L412.596 408.301L412.487 407.838C409.592 395.621 405.031 383.356 400.578 371.382C399.256 367.828 397.944 364.299 396.688 360.804C396.06 359.059 395.469 357.302 394.88 355.548C392.281 347.82 389.702 340.147 384.05 333.696C378.731 327.624 370.795 323.276 362.457 319.679C358.283 317.878 353.992 316.258 349.861 314.704L349.573 314.595C345.541 313.079 341.672 311.623 338.199 310.113C336.221 309.253 334.267 308.292 332.288 307.319C330.85 306.612 329.398 305.898 327.914 305.212C324.424 303.597 320.833 302.175 317.088 301.507L316.218 301.352L316.533 302.178L332.37 343.732C329.971 344.871 327.813 345.305 325.801 345.238C323.674 345.168 321.678 344.537 319.699 343.539C317.716 342.538 315.764 341.174 313.725 339.65C313.098 339.182 312.462 338.697 311.814 338.204C310.367 337.102 308.864 335.957 307.286 334.855C306.65 334.41 305.955 333.859 305.2 333.26C304.964 333.072 304.722 332.88 304.474 332.685C303.444 331.876 302.328 331.03 301.169 330.328C298.874 328.938 296.269 328.026 293.776 329.277C291.784 330.277 289.983 331.894 288.326 333.606C287.555 334.402 286.808 335.226 286.083 336.024L285.915 336.21C285.135 337.069 284.384 337.893 283.647 338.63C281.919 340.357 279.829 342.195 277.599 344.137C277.369 344.338 277.136 344.54 276.903 344.743C274.885 346.499 272.777 348.333 270.754 350.226C266.252 354.44 262.102 359.013 260.275 363.794C259.229 366.531 259.133 369.843 259.278 373.194C259.334 374.502 259.427 375.808 259.518 377.098C259.664 379.161 259.806 381.182 259.795 383.096C259.776 386.196 259.345 388.827 257.953 390.652C256.588 392.442 254.209 393.568 250.015 393.444C248.214 393.391 246.822 392.971 245.742 392.284C244.664 391.598 243.865 390.626 243.281 389.418C242.103 386.978 241.82 383.619 241.9 379.881C241.949 377.598 242.13 375.232 242.31 372.886C242.425 371.382 242.539 369.887 242.618 368.427C242.816 364.742 242.785 361.295 241.866 358.802L241.397 358.975L241.866 358.802C240.173 354.211 235.986 349.534 231.423 345.245C229.133 343.093 226.731 341.023 224.474 339.097C224.172 338.84 223.874 338.585 223.578 338.333C221.656 336.696 219.872 335.176 218.377 333.801C218.008 333.461 217.605 333.071 217.176 332.655C216.168 331.679 215.015 330.561 213.799 329.618C212.062 328.272 210.064 327.168 207.964 327.302L207.964 327.302C205.75 327.444 203.031 328.497 200.15 330.04C197.256 331.59 194.145 333.665 191.133 335.906C185.217 340.308 179.64 345.387 176.781 348.479H176.235C173.451 345.074 172.668 341.486 173.045 337.751C173.43 333.925 175.033 329.94 176.996 325.842C177.669 324.437 178.387 323.014 179.109 321.583C180.475 318.875 181.857 316.135 182.982 313.424C184.706 309.266 185.873 305.072 185.498 300.955Z" fill="#0C0C0C" stroke="#0C0C0C"/>
<path d="M214 323C217.351 327.757 221.637 331.866 226 335.715C229.071 338.423 232.095 341.111 235 344.001C236.446 345.439 251.625 357.701 248.654 347.165C247.774 344.044 243.215 341.186 241 338.996C234.687 332.755 223.22 315.939 214 323Z" fill="#FBFAFB"/>
<path d="M250 356L258 357.867L268 349L291 324C284.204 319.951 280.994 324.016 276 329C267.347 337.635 257.044 345.999 250 356Z" fill="#FBFAFB"/>
<path d="M248 361V388H255C255 378.284 258.437 365.427 248 361Z" fill="#FBFAFB"/>
<path d="M94 417L91 428L142 443V431L94 417Z" fill="#FBFAFB"/>
<path d="M360 445L412 428L408 418L374 428.294L361.028 433.513L360 445Z" fill="#FBFAFB"/>
</g>
<mask id="mask0_42_12226" style="mask-type:alpha" maskUnits="userSpaceOnUse" x="248" y="23" width="248" height="534">
<rect x="248" y="23.4425" width="248" height="532.597" fill="#D9D9D9"/>
</mask>
<g mask="url(#mask0_42_12226)">
<g clip-path="url(#clip1_42_12226)">
<path d="M178 48C170.426 51.6065 164.76 58.3712 164.094 67C163.853 70.1312 165.572 74.5951 164.458 77.4714C161.888 84.1117 153.113 86.822 150.789 95C146.381 110.509 159.854 122.925 160.91 138C161.351 144.286 163.372 158.286 159.972 163.722C154.342 172.725 142.714 172.24 142.04 186C141.481 197.402 145.625 207.401 157 211.728C160.692 213.132 166.49 211.855 169.436 214.603C174.774 219.583 176.042 232.469 180.065 239C188.342 252.439 199.151 260.165 211 270C200.765 275.303 195.467 286.999 185.985 292.176C163.384 304.514 128.597 309.543 111.808 330.015C103.803 339.776 100.592 352.227 96.6667 364C91.2099 380.367 85.3377 396.596 80 413L87 415L80 433L95 438L85 482L92 486L102 438C112.055 439.479 122.333 443.53 132 446.67C135.394 447.772 140.817 448.474 142.397 452.144C144.052 455.991 143 461.887 143 466V498C143 505.7 141.083 512.831 150 515V406V380C149.995 377.492 150.667 372.845 147.701 371.662C140.87 368.937 143 387.614 143 391C137.266 387.222 132.814 386.005 126 386C127.866 391.627 136.361 391.297 140.196 396.185C145.499 402.945 143 415.876 143 424L90 408C97.3376 385.449 102.933 351.76 119.174 334.015C126.352 326.171 136.489 322.701 146 318.576C159.352 312.784 172.425 306.266 186 301C183.553 311.573 178.761 321.91 174.797 332C173.37 335.632 169.96 341.087 172.644 344.836C175.845 349.309 180.744 345.536 184 343.279C189.888 339.199 200.752 328.058 208 327.689C213.039 327.433 219.745 336.302 223.285 339.514C229.244 344.92 238.344 351.743 241.972 359C246.156 367.368 243 383.709 243 393H260C260 384.929 257.38 371.295 261.028 364C264.943 356.169 274.571 349.498 280.572 343.17C283.939 339.618 290.83 329.492 296.093 329.213C302.795 328.858 313.67 339.699 319 343.424C322.126 345.608 326.106 348.848 329.639 345.409C332.928 342.208 329.524 336.447 328.189 333C324.066 322.356 320.108 311.649 316 301C328.338 305.2 340.068 311.371 352 316.576C364.404 321.986 377.039 326.031 385.711 337.004C393.885 347.348 396.577 361.787 400.95 374C403.793 381.94 406.337 389.998 409 398C409.905 400.719 412.088 404.853 410.212 407.57C407.845 411 400.72 411.6 397 412.72C384.7 416.425 372.528 421.128 360 424C360 416.432 357.546 403.596 361.742 397.015C365.334 391.384 374.051 391.893 376 386C369.646 386.018 365.219 387.288 360 391C360 387.726 361.864 367.818 354.313 372.086C351.421 373.721 352.006 378.234 352 381V407V515C361.775 511.653 360 505.062 360 496C360 483.997 355.931 463.165 360.603 452.133C363.53 445.224 383.305 442.674 390 440.706C392.796 439.884 397.6 437.349 399.825 440.361C402.402 443.85 402.605 450.814 403.449 455C405.472 465.033 407.933 474.978 410 485C426.84 478.379 402.969 451.138 409.198 439.419C411.096 435.848 418.418 434.829 422 434C420.871 426.462 412.888 417.276 422 413C418.154 396.374 411.108 380.166 405.667 364C400.823 349.606 397.247 334.478 384.999 324.329C365.527 308.192 336.685 304.268 315.105 291.471C311.608 289.397 310.451 285.583 307.725 282.754C302.714 277.551 296.311 273.858 292 268C311.96 260.435 330.152 234.167 332 213C341.771 213 350.118 211.597 356.2 202.996C365.649 189.634 358.908 168.639 342 166C342 152.02 340.323 136.84 342.3 123C345.449 100.964 364.383 79.0125 338.985 61.5988C335.338 59.0982 331.336 57.6499 327 57C330.93 51.9121 337.327 48.1704 344 49.544C347.05 50.1718 354.37 55.7062 356.953 52.3788C361.163 46.955 349.353 42.8899 346 42.3256C336.138 40.6661 328.044 44.3217 321 51C315.335 21.8899 289.981 22.2682 266 23.9105C247.339 25.1884 226.5 25.4701 208 22.8696C196.472 21.2493 185.849 19.4668 179.255 9.14813C178.056 7.27301 175.868 5.35919 173.599 7.04712C170.908 9.0484 172 15.1088 172 18C172.001 28.7286 174.138 38.0439 178 48Z" fill="#000B1D"/>
<path d="M180 24C180.274 25.4751 180.507 27.019 180.745 28.5941C181.761 35.3292 182.863 42.6343 187.637 47.5702C188.391 48.3492 190.193 49.0994 192.167 49.9213C195.767 51.4204 199.941 53.158 199.369 55.7438C198.899 57.8698 195.954 56.9185 194.417 56.4222C194.262 56.3721 194.121 56.3266 193.999 56.2894C187.808 54.4075 181.015 54.0457 176.214 59.1088C172.1 63.4466 169.796 72.6159 174.703 77.4005C175.292 77.9751 176.498 78.3973 177.785 78.8479C180.166 79.6818 182.825 80.6129 182.369 82.787C182.014 84.4813 177.403 84.9942 173.402 85.4392C171.08 85.6976 168.963 85.933 168.004 86.3634C155.455 91.9922 156.657 106.292 163 116H164C164.123 114.502 165.372 104.403 168.698 107.06C170.555 108.544 169.87 113.681 169.359 117.514C169.168 118.943 169.001 120.191 169 121V164H177C177 159.814 176.838 155.48 176.673 151.081C176.165 137.536 175.633 123.369 179.75 111C187.237 88.5045 213.096 77.9406 235 77L225 90C235.159 89.7903 244.191 86.4794 252.995 83.2522C266.171 78.4225 278.836 73.7802 294 80C295.19 78.2361 296.954 76.0065 298.926 73.5147C304.99 65.8503 313.017 55.7051 312.337 49C311.317 38.9364 300.381 31.4998 291 31.0401C279.268 30.4653 267.514 31.0201 255.753 31.5753C242.839 32.1849 229.915 32.7949 217 31.9105C209.128 31.3714 201.867 29.4207 194.596 27.4674C189.795 26.1776 184.989 24.8866 180 24Z" fill="white"/>
<path d="M180 24C180.274 25.4751 180.507 27.019 180.745 28.5941C181.761 35.3292 182.863 42.6343 187.637 47.5702C188.391 48.3492 190.193 49.0994 192.167 49.9213C195.767 51.4204 199.941 53.158 199.369 55.7438C198.899 57.8698 195.954 56.9185 194.417 56.4222C194.262 56.3721 194.121 56.3266 193.999 56.2894C187.808 54.4075 181.015 54.0457 176.214 59.1088C172.1 63.4466 169.796 72.6159 174.703 77.4005C175.292 77.9751 176.498 78.3973 177.785 78.8479C180.166 79.6818 182.825 80.6129 182.369 82.787C182.014 84.4813 177.403 84.9942 173.402 85.4392C171.08 85.6976 168.963 85.933 168.004 86.3634C155.455 91.9922 156.657 106.292 163 116H164C164.123 114.502 165.372 104.403 168.698 107.06C170.555 108.544 169.87 113.681 169.359 117.514C169.168 118.943 169.001 120.191 169 121V164H177C177 159.814 176.838 155.48 176.673 151.081C176.165 137.536 175.633 123.369 179.75 111C187.237 88.5045 213.096 77.9406 235 77L225 90C235.159 89.7903 244.191 86.4794 252.995 83.2522C266.171 78.4225 278.836 73.7802 294 80C295.19 78.2361 296.954 76.0065 298.926 73.5147C304.99 65.8503 313.017 55.7051 312.337 49C311.317 38.9364 300.381 31.4998 291 31.0401C279.268 30.4653 267.514 31.0201 255.753 31.5753C242.839 32.1849 229.915 32.7949 217 31.9105C209.128 31.3714 201.867 29.4207 194.596 27.4674C189.795 26.1776 184.989 24.8866 180 24Z" stroke="#060504"/>
<path d="M312 52L294 80C271.07 66.9661 248.543 88.989 225 90L235 77C227.943 77.1457 220.761 78.415 214 80.4383C173.09 92.6806 177 129.374 177 164C185.82 163.707 187.592 151.816 194.015 146.468C211.132 132.213 236.836 140.653 243 162L259 163C268.658 134.684 313.826 129.613 319 164H325C325 145.741 329.34 120.962 321.687 104C318.921 97.8697 314.523 92.1923 308 89.8195C305.608 88.9495 297.414 90.6547 297.113 87.794C296.795 84.7578 300.238 81.3068 301.806 79C306.886 71.5233 316.04 61.6276 312 52Z" fill="#FBFAFB"/>
<path d="M302 88C332.77 99.8666 325 137.129 325 164H334C334 146.346 335.865 127.52 333.714 110C333.087 104.897 325.958 91.3179 327.241 87.5424C328.367 84.2271 332.307 88.9459 333.046 90.0479C336.167 94.7049 337.747 100.465 338 106C349.368 92.2276 343.522 58.7584 320.04 64.3326C312.716 66.0712 305.457 81.7904 302 88Z" fill="white"/>
<path d="M288 111.468C285.095 112.031 276.494 116.9 283.153 119.307C288.184 121.126 293.691 117.813 299 120.457C302.285 122.093 306.547 127.907 310.681 126.338C315.685 124.44 310.064 118.192 307.981 116.532C302.504 112.171 294.888 110.133 288 111.468Z" fill="#060504"/>
<path d="M288 147.61C259.124 149.268 261.135 193.753 290 192.402C319.315 191.03 317.212 145.932 288 147.61Z" fill="#FBFAFB"/>
<path d="M296 168C291.936 167.814 291.293 165.842 291 162C289.27 162.275 287.604 162.451 286.034 163.318C270.773 171.743 299.401 186.451 296 168Z" fill="#060504"/>
<path d="M183 173H177C177 193.633 175.345 214.309 185.876 233C210.821 277.276 275.66 285.076 308.535 245C326.08 223.613 326 199.187 326 173H320C316.405 190.371 300.737 205.012 282 200.076C274.617 198.131 270.029 193.23 264 189C264 196.553 265.615 206.366 261.121 212.957C259.902 214.745 250.855 222.356 249.631 216.823C249.126 214.536 256.236 211.298 257.427 208.956C261.279 201.385 259.206 188.309 258.985 180C258.892 176.48 258.545 172.352 254.867 170.742C243.196 165.634 241.074 185.739 234.907 191.907C217.002 209.812 185.214 198.364 183 173Z" fill="#FBFAFB"/>
<path d="M334 173V184L346 182L336.434 190.279L334 205C357.888 204.8 357.888 173.2 334 173Z" fill="#FBFAFB"/>
<path d="M280 225C280.07 244.744 249.575 238.492 238 241V243C247.177 247.416 261.811 245.661 271 241.851C278.343 238.807 282.758 234.262 291 235C290.087 229.596 285.046 226.374 280 225Z" fill="#060504"/>
<path d="M281 274C259.871 283.825 242.342 277.127 221 275C221 285.265 217.416 303.777 222.028 313C225.661 320.267 234.286 325.7 240.09 331.184C243.36 334.275 249.104 342.793 254 342.793C258.883 342.793 264.837 334.163 268 331C272.197 326.803 278.285 322.374 280.972 317C282.719 313.505 282 308.787 282 305C282 295.94 284.507 282.358 281 274Z" fill="#FBFAFB"/>
<path d="M290 279C290 288.318 286.915 304.138 290.603 312.7C294.101 320.819 312.414 329.773 320 334C312.966 315.765 308.641 288.658 290 279Z" fill="#FBFAFB"/>
<path d="M185.498 300.955L185.428 300.182L184.753 300.565C176.845 305.064 167.875 308.405 158.821 311.778C157.101 312.419 155.378 313.061 153.659 313.712C142.914 317.781 132.326 322.209 123.691 328.984L123.691 328.984C114.259 336.387 110.865 346.245 107.283 356.652C106.809 358.028 106.332 359.415 105.837 360.806C104.506 364.548 103.03 368.367 101.527 372.242C101.447 372.447 101.368 372.651 101.289 372.856C99.8628 376.53 98.4179 380.255 97.0571 384.001C94.1845 391.91 91.6781 399.942 90.5054 407.88L90.4418 408.31L90.859 408.433L141.859 423.426L142.5 423.615V422.946C142.5 421.005 142.553 419.074 142.607 417.169L142.617 416.85C142.668 415.057 142.719 413.288 142.726 411.568C142.741 407.93 142.559 404.476 141.754 401.418C140.945 398.351 139.505 395.667 136.997 393.594C134.598 391.61 131.262 390.218 126.665 389.548C127.262 387.925 128.102 387.011 129.051 386.542C130.119 386.014 131.422 385.998 132.885 386.332C134.345 386.665 135.905 387.333 137.441 388.1C138.389 388.574 139.302 389.071 140.171 389.545C140.721 389.844 141.254 390.135 141.768 390.404L142.5 390.787V389.961C142.5 389.672 142.49 389.244 142.478 388.707C142.421 386.257 142.312 381.55 142.854 377.582C143.018 376.377 143.241 375.255 143.539 374.296C143.838 373.331 144.204 372.562 144.636 372.039C145.06 371.526 145.526 371.27 146.061 371.254C146.617 371.238 147.342 371.479 148.271 372.171L148.271 372.171C149.485 373.075 150.287 374.806 150.764 377.123C151.237 379.423 151.371 382.199 151.333 385.069C151.296 387.936 151.089 390.871 150.89 393.485C150.868 393.771 150.846 394.054 150.825 394.333C150.652 396.584 150.5 398.563 150.5 399.957V482.92C150.5 484.734 150.288 487.276 150.036 490.191L149.994 490.678C149.753 493.458 149.486 496.534 149.344 499.572C149.193 502.786 149.181 505.976 149.491 508.745C149.798 511.497 150.431 513.909 151.628 515.504C152.718 516.958 154.598 517.842 156.484 518.484C157.438 518.809 158.419 519.079 159.338 519.328C159.42 519.35 159.501 519.372 159.582 519.394C160.413 519.619 161.181 519.826 161.842 520.046L162 519.571L161.843 520.046C170.985 523.08 180.465 525.504 189.902 527.391C229.262 535.261 269.688 535.668 309.098 527.791C319.568 525.698 330.014 523.088 340.158 519.712C340.882 519.471 341.733 519.243 342.658 518.996L342.916 518.927C343.933 518.654 345.022 518.357 346.079 517.999C348.167 517.291 350.24 516.308 351.381 514.684C352.564 513 353.195 510.556 353.502 507.788C353.81 505.007 353.799 501.832 353.65 498.635C353.51 495.653 353.25 492.635 353.013 489.885C352.996 489.686 352.979 489.487 352.962 489.291C352.711 486.374 352.5 483.807 352.5 481.921V398.957C352.5 397.72 352.361 395.881 352.199 393.754C352.175 393.437 352.151 393.113 352.126 392.783C351.935 390.234 351.736 387.336 351.699 384.51C351.662 381.68 351.788 378.947 352.239 376.723C352.696 374.472 353.46 372.873 354.586 372.14L354.313 371.721L354.586 372.14C355.419 371.597 356.05 371.465 356.525 371.543C356.992 371.62 357.415 371.92 357.8 372.479C358.591 373.629 359.071 375.664 359.336 378.047C359.75 381.782 359.613 386.085 359.537 388.487C359.516 389.131 359.5 389.638 359.5 389.961V390.735L360.206 390.417C360.824 390.137 365.521 388.199 369.574 387.133C370.585 386.867 371.546 386.658 372.388 386.542C373.239 386.424 373.93 386.408 374.418 386.501C374.912 386.595 375.056 386.768 375.098 386.915C375.157 387.12 375.113 387.551 374.649 388.331C373.955 389.5 372.93 390.278 371.693 390.897C370.721 391.384 369.653 391.758 368.533 392.15C368.209 392.264 367.881 392.379 367.549 392.498C364.629 393.552 361.574 394.933 360.135 398.786C358.852 402.222 358.707 406.534 358.868 410.818C358.936 412.64 359.061 414.472 359.181 416.24C359.203 416.556 359.224 416.87 359.245 417.182C359.383 419.242 359.5 421.195 359.5 422.946V423.611L360.139 423.427L412.139 408.433L412.596 408.301L412.487 407.838C409.592 395.621 405.031 383.356 400.578 371.382C399.256 367.828 397.944 364.299 396.688 360.804C396.06 359.059 395.469 357.302 394.88 355.548C392.281 347.82 389.702 340.147 384.05 333.696C378.731 327.624 370.795 323.276 362.457 319.679C358.283 317.878 353.992 316.258 349.861 314.704L349.573 314.595C345.541 313.079 341.672 311.623 338.199 310.113C336.221 309.253 334.267 308.292 332.288 307.319C330.85 306.612 329.398 305.898 327.914 305.212C324.424 303.597 320.833 302.175 317.088 301.507L316.218 301.352L316.533 302.178L332.37 343.732C329.971 344.871 327.813 345.305 325.801 345.238C323.674 345.168 321.678 344.537 319.699 343.539C317.716 342.538 315.764 341.174 313.725 339.65C313.098 339.182 312.462 338.697 311.814 338.204C310.367 337.102 308.864 335.957 307.286 334.855C306.65 334.41 305.955 333.859 305.2 333.26C304.964 333.072 304.722 332.88 304.474 332.685C303.444 331.876 302.328 331.03 301.169 330.328C298.874 328.938 296.269 328.026 293.776 329.277C291.784 330.277 289.983 331.894 288.326 333.606C287.555 334.402 286.808 335.226 286.083 336.024L285.915 336.21C285.135 337.069 284.384 337.893 283.647 338.63C281.919 340.357 279.829 342.195 277.599 344.137C277.369 344.338 277.136 344.54 276.903 344.743C274.885 346.499 272.777 348.333 270.754 350.226C266.252 354.44 262.102 359.013 260.275 363.794C259.229 366.531 259.133 369.843 259.278 373.194C259.334 374.502 259.427 375.808 259.518 377.098C259.664 379.161 259.806 381.182 259.795 383.096C259.776 386.196 259.345 388.827 257.953 390.652C256.588 392.442 254.209 393.568 250.015 393.444C248.214 393.391 246.822 392.971 245.742 392.284C244.664 391.598 243.865 390.626 243.281 389.418C242.103 386.978 241.82 383.619 241.9 379.881C241.949 377.598 242.13 375.232 242.31 372.886C242.425 371.382 242.539 369.887 242.618 368.427C242.816 364.742 242.785 361.295 241.866 358.802L241.397 358.975L241.866 358.802C240.173 354.211 235.986 349.534 231.423 345.245C229.133 343.093 226.731 341.023 224.474 339.097C224.172 338.84 223.874 338.585 223.578 338.333C221.656 336.696 219.872 335.176 218.377 333.801C218.008 333.461 217.605 333.071 217.176 332.655C216.168 331.679 215.015 330.561 213.799 329.618C212.062 328.272 210.064 327.168 207.964 327.302L207.964 327.302C205.75 327.444 203.031 328.497 200.15 330.04C197.256 331.59 194.145 333.665 191.133 335.906C185.217 340.308 179.64 345.387 176.781 348.479H176.235C173.451 345.074 172.668 341.486 173.045 337.751C173.43 333.925 175.033 329.94 176.996 325.842C177.669 324.437 178.387 323.014 179.109 321.583C180.475 318.875 181.857 316.135 182.982 313.424C184.706 309.266 185.873 305.072 185.498 300.955Z" fill="white" stroke="white"/>
<path d="M214 323C217.351 327.757 221.637 331.866 226 335.715C229.071 338.423 232.095 341.111 235 344.001C236.446 345.439 251.625 357.701 248.654 347.165C247.774 344.044 243.215 341.186 241 338.996C234.687 332.755 223.22 315.939 214 323Z" fill="#FBFAFB"/>
<path d="M250 356L258 357.867L268 349L291 324C284.204 319.951 280.994 324.016 276 329C267.347 337.635 257.044 345.999 250 356Z" fill="#FBFAFB"/>
<path d="M248 361V388H255C255 378.284 258.437 365.427 248 361Z" fill="#FBFAFB"/>
<path d="M360 445L412 428L408 418L374 428.294L361.028 433.513L360 445Z" fill="#FBFAFB"/>
</g>
</g>
<defs>
<clipPath id="clip0_42_12226">
<rect width="499" height="533" fill="white"/>
</clipPath>
<clipPath id="clip1_42_12226">
<rect width="499" height="533" fill="white"/>
</clipPath>
</defs>
</svg>
