<svg width="499" height="557" viewBox="0 0 499 557" fill="none" xmlns="http://www.w3.org/2000/svg">
<g clip-path="url(#clip0_42_12226)">
<mask id="path-1-inside-1_42_12226" fill="white">
<path d="M178 48C170.426 51.6065 164.76 58.3712 164.094 67C163.853 70.1312 165.572 74.5951 164.458 77.4714C161.888 84.1117 153.113 86.822 150.789 95C146.381 110.509 159.854 122.925 160.91 138C161.351 144.286 163.372 158.286 159.972 163.722C154.342 172.725 142.714 172.24 142.04 186C141.481 197.402 145.625 207.401 157 211.728C160.692 213.132 166.49 211.855 169.436 214.603C174.774 219.583 176.042 232.469 180.065 239C188.342 252.439 199.151 260.165 211 270C200.765 275.303 195.467 286.999 185.985 292.176C163.384 304.514 128.597 309.543 111.808 330.015C103.803 339.776 100.592 352.227 96.6667 364C91.2099 380.367 85.3377 396.596 80 413L87 415L80 433L95 438L85 482L92 486L102 438C112.055 439.479 122.333 443.53 132 446.67C135.394 447.772 140.817 448.474 142.397 452.144C144.052 455.991 143 461.887 143 466V498C143 505.7 141.083 512.831 150 515V406V380C149.995 377.492 150.667 372.845 147.701 371.662C140.87 368.937 143 387.614 143 391C137.266 387.222 132.814 386.005 126 386C127.866 391.627 136.361 391.297 140.196 396.185C145.499 402.945 143 415.876 143 424L90 408C97.3376 385.449 102.933 351.76 119.174 334.015C126.352 326.171 136.489 322.701 146 318.576C159.352 312.784 172.425 306.266 186 301C183.553 311.573 178.761 321.91 174.797 332C173.37 335.632 169.96 341.087 172.644 344.836C175.845 349.309 180.744 345.536 184 343.279C189.888 339.199 200.752 328.058 208 327.689C213.039 327.433 219.745 336.302 223.285 339.514C229.244 344.92 238.344 351.743 241.972 359C246.156 367.368 243 383.709 243 393H260C260 384.929 257.38 371.295 261.028 364C264.943 356.169 274.571 349.498 280.572 343.17C283.939 339.618 290.83 329.492 296.093 329.213C302.795 328.858 313.67 339.699 319 343.424C322.126 345.608 326.106 348.848 329.639 345.409C332.928 342.208 329.524 336.447 328.189 333C324.066 322.356 320.108 311.649 316 301C328.338 305.2 340.068 311.371 352 316.576C364.404 321.986 377.039 326.031 385.711 337.004C393.885 347.348 396.577 361.787 400.95 374C403.793 381.94 406.337 389.998 409 398C409.905 400.719 412.088 404.853 410.212 407.57C407.845 411 400.72 411.6 397 412.72C384.7 416.425 372.528 421.128 360 424C360 416.432 357.546 403.596 361.742 397.015C365.334 391.384 374.051 391.893 376 386C369.646 386.018 365.219 387.288 360 391C360 387.726 361.864 367.818 354.313 372.086C351.421 373.721 352.006 378.234 352 381V407V515C361.775 511.653 360 505.062 360 496C360 483.997 355.931 463.165 360.603 452.133C363.53 445.224 383.305 442.674 390 440.706C392.796 439.884 397.6 437.349 399.825 440.361C402.402 443.85 402.605 450.814 403.449 455C405.472 465.033 407.933 474.978 410 485C426.84 478.379 402.969 451.138 409.198 439.419C411.096 435.848 418.418 434.829 422 434C420.871 426.462 412.888 417.276 422 413C418.154 396.374 411.108 380.166 405.667 364C400.823 349.606 397.247 334.478 384.999 324.329C365.527 308.192 336.685 304.268 315.105 291.471C311.608 289.397 310.451 285.583 307.725 282.754C302.714 277.551 296.311 273.858 292 268C311.96 260.435 330.152 234.167 332 213C341.771 213 350.118 211.597 356.2 202.996C365.649 189.634 358.908 168.639 342 166C342 152.02 340.323 136.84 342.3 123C345.449 100.964 364.383 79.0125 338.985 61.5988C335.338 59.0982 331.336 57.6499 327 57C330.93 51.9121 337.327 48.1704 344 49.544C347.05 50.1718 354.37 55.7062 356.953 52.3788C361.163 46.955 349.353 42.8899 346 42.3256C336.138 40.6661 328.044 44.3217 321 51C315.335 21.8899 289.981 22.2682 266 23.9105C247.339 25.1884 226.5 25.4701 208 22.8696C196.472 21.2493 185.849 19.4668 179.255 9.14813C178.056 7.27301 175.868 5.35919 173.599 7.04712C170.908 9.0484 172 15.1088 172 18C172.001 28.7286 174.138 38.0439 178 48Z"/>
</mask>
<path d="M178 48C170.426 51.6065 164.76 58.3712 164.094 67C163.853 70.1312 165.572 74.5951 164.458 77.4714C161.888 84.1117 153.113 86.822 150.789 95C146.381 110.509 159.854 122.925 160.91 138C161.351 144.286 163.372 158.286 159.972 163.722C154.342 172.725 142.714 172.24 142.04 186C141.481 197.402 145.625 207.401 157 211.728C160.692 213.132 166.49 211.855 169.436 214.603C174.774 219.583 176.042 232.469 180.065 239C188.342 252.439 199.151 260.165 211 270C200.765 275.303 195.467 286.999 185.985 292.176C163.384 304.514 128.597 309.543 111.808 330.015C103.803 339.776 100.592 352.227 96.6667 364C91.2099 380.367 85.3377 396.596 80 413L87 415L80 433L95 438L85 482L92 486L102 438C112.055 439.479 122.333 443.53 132 446.67C135.394 447.772 140.817 448.474 142.397 452.144C144.052 455.991 143 461.887 143 466V498C143 505.7 141.083 512.831 150 515V406V380C149.995 377.492 150.667 372.845 147.701 371.662C140.87 368.937 143 387.614 143 391C137.266 387.222 132.814 386.005 126 386C127.866 391.627 136.361 391.297 140.196 396.185C145.499 402.945 143 415.876 143 424L90 408C97.3376 385.449 102.933 351.76 119.174 334.015C126.352 326.171 136.489 322.701 146 318.576C159.352 312.784 172.425 306.266 186 301C183.553 311.573 178.761 321.91 174.797 332C173.37 335.632 169.96 341.087 172.644 344.836C175.845 349.309 180.744 345.536 184 343.279C189.888 339.199 200.752 328.058 208 327.689C213.039 327.433 219.745 336.302 223.285 339.514C229.244 344.92 238.344 351.743 241.972 359C246.156 367.368 243 383.709 243 393H260C260 384.929 257.38 371.295 261.028 364C264.943 356.169 274.571 349.498 280.572 343.17C283.939 339.618 290.83 329.492 296.093 329.213C302.795 328.858 313.67 339.699 319 343.424C322.126 345.608 326.106 348.848 329.639 345.409C332.928 342.208 329.524 336.447 328.189 333C324.066 322.356 320.108 311.649 316 301C328.338 305.2 340.068 311.371 352 316.576C364.404 321.986 377.039 326.031 385.711 337.004C393.885 347.348 396.577 361.787 400.95 374C403.793 381.94 406.337 389.998 409 398C409.905 400.719 412.088 404.853 410.212 407.57C407.845 411 400.72 411.6 397 412.72C384.7 416.425 372.528 421.128 360 424C360 416.432 357.546 403.596 361.742 397.015C365.334 391.384 374.051 391.893 376 386C369.646 386.018 365.219 387.288 360 391C360 387.726 361.864 367.818 354.313 372.086C351.421 373.721 352.006 378.234 352 381V407V515C361.775 511.653 360 505.062 360 496C360 483.997 355.931 463.165 360.603 452.133C363.53 445.224 383.305 442.674 390 440.706C392.796 439.884 397.6 437.349 399.825 440.361C402.402 443.85 402.605 450.814 403.449 455C405.472 465.033 407.933 474.978 410 485C426.84 478.379 402.969 451.138 409.198 439.419C411.096 435.848 418.418 434.829 422 434C420.871 426.462 412.888 417.276 422 413C418.154 396.374 411.108 380.166 405.667 364C400.823 349.606 397.247 334.478 384.999 324.329C365.527 308.192 336.685 304.268 315.105 291.471C311.608 289.397 310.451 285.583 307.725 282.754C302.714 277.551 296.311 273.858 292 268C311.96 260.435 330.152 234.167 332 213C341.771 213 350.118 211.597 356.2 202.996C365.649 189.634 358.908 168.639 342 166C342 152.02 340.323 136.84 342.3 123C345.449 100.964 364.383 79.0125 338.985 61.5988C335.338 59.0982 331.336 57.6499 327 57C330.93 51.9121 337.327 48.1704 344 49.544C347.05 50.1718 354.37 55.7062 356.953 52.3788C361.163 46.955 349.353 42.8899 346 42.3256C336.138 40.6661 328.044 44.3217 321 51C315.335 21.8899 289.981 22.2682 266 23.9105C247.339 25.1884 226.5 25.4701 208 22.8696C196.472 21.2493 185.849 19.4668 179.255 9.14813C178.056 7.27301 175.868 5.35919 173.599 7.04712C170.908 9.0484 172 15.1088 172 18C172.001 28.7286 174.138 38.0439 178 48Z" fill="#060504"/>
<path d="M178 48L180.15 52.5143L184.34 50.519L182.662 46.1918L178 48ZM164.094 67L159.109 66.6152L159.109 66.6163L164.094 67ZM164.458 77.4714L159.795 75.6656L159.795 75.6667L164.458 77.4714ZM150.789 95L155.599 96.367L155.599 96.3668L150.789 95ZM160.91 138L155.922 138.349L155.922 138.35L160.91 138ZM159.972 163.722L155.733 161.071L155.733 161.071L159.972 163.722ZM142.04 186L147.034 186.245L147.034 186.245L142.04 186ZM157 211.728L155.222 216.401L155.223 216.401L157 211.728ZM169.436 214.603L172.847 210.947L172.847 210.947L169.436 214.603ZM180.065 239L184.322 236.378L184.322 236.378L180.065 239ZM211 270L213.3 274.439L219.997 270.97L214.193 266.153L211 270ZM185.985 292.176L188.381 296.565L188.381 296.565L185.985 292.176ZM111.808 330.015L115.674 333.186H115.674L111.808 330.015ZM96.6667 364L91.9234 362.419L91.9234 362.419L96.6667 364ZM80 413L75.2454 411.453L73.6411 416.383L78.6264 417.808L80 413ZM87 415L91.66 416.812L93.6483 411.699L88.3736 410.192L87 415ZM80 433L75.34 431.188L73.4364 436.083L78.4189 437.743L80 433ZM95 438L99.8757 439.108L100.88 434.69L96.5811 433.257L95 438ZM85 482L80.1243 480.892L79.3035 484.504L82.5193 486.341L85 482ZM92 486L89.5193 490.341L95.4919 493.754L96.8949 487.02L92 486ZM102 438L102.728 433.053L98.0661 432.368L97.1051 436.98L102 438ZM132 446.67L130.455 451.425L130.456 451.426L132 446.67ZM142.397 452.144L146.99 450.168L146.989 450.167L142.397 452.144ZM150 515L148.818 519.858L155 521.362V515H150ZM150 380H155L155 379.99L150 380ZM147.701 371.662L145.848 376.306L145.849 376.306L147.701 371.662ZM143 391L140.249 395.175L148 400.282V391H143ZM126 386L126.004 381L119.072 380.995L121.254 387.574L126 386ZM140.196 396.185L144.13 393.099L144.13 393.099L140.196 396.185ZM143 424L141.555 428.787L148 430.732V424H143ZM90 408L85.2454 406.453L83.6649 411.31L88.555 412.787L90 408ZM119.174 334.015L122.862 337.391L122.863 337.39L119.174 334.015ZM146 318.576L147.989 323.163L147.99 323.163L146 318.576ZM186 301L190.871 302.127L193.002 292.921L184.192 296.338L186 301ZM174.797 332L179.451 333.828L179.451 333.828L174.797 332ZM172.644 344.836L176.71 341.926L176.71 341.925L172.644 344.836ZM184 343.279L181.152 339.169L181.152 339.17L184 343.279ZM208 327.689L207.746 322.695L207.746 322.695L208 327.689ZM223.285 339.514L219.925 343.217L219.925 343.217L223.285 339.514ZM241.972 359L237.5 361.236L237.5 361.236L241.972 359ZM243 393H238V398H243V393ZM260 393V398H265V393H260ZM261.028 364L265.5 366.236L265.5 366.236L261.028 364ZM280.572 343.17L284.2 346.611L284.201 346.61L280.572 343.17ZM296.093 329.213L295.829 324.22L295.828 324.22L296.093 329.213ZM319 343.424L316.136 347.522L316.136 347.523L319 343.424ZM329.639 345.409L326.152 341.826L326.151 341.826L329.639 345.409ZM328.189 333L332.852 331.194L332.851 331.194L328.189 333ZM316 301L317.611 296.267L307.485 292.82L311.335 302.8L316 301ZM352 316.576L350.001 321.159L350.001 321.159L352 316.576ZM385.711 337.004L389.634 333.904L389.634 333.904L385.711 337.004ZM400.95 374L405.657 372.314L400.95 374ZM409 398L404.256 399.579L404.256 399.579L409 398ZM410.212 407.57L406.098 404.729L406.097 404.73L410.212 407.57ZM397 412.72L395.559 407.932L395.558 407.932L397 412.72ZM360 424H355V430.276L361.117 428.874L360 424ZM361.742 397.015L357.527 394.326L357.526 394.327L361.742 397.015ZM376 386L380.747 387.57L382.927 380.98L375.986 381L376 386ZM360 391H355V400.692L362.898 395.075L360 391ZM354.313 372.086L351.853 367.733L351.852 367.733L354.313 372.086ZM352 381L347 380.989V381H352ZM352 515H347V521.997L353.62 519.73L352 515ZM360.603 452.133L355.999 450.183L355.999 450.183L360.603 452.133ZM390 440.706L391.41 445.503L391.41 445.503L390 440.706ZM399.825 440.361L403.847 437.39L403.847 437.39L399.825 440.361ZM403.449 455L398.548 455.988V455.988L403.449 455ZM410 485L405.103 486.01L406.303 491.826L411.83 489.653L410 485ZM409.198 439.419L413.613 441.766L413.613 441.766L409.198 439.419ZM422 434L423.127 438.871L427.629 437.829L426.945 433.259L422 434ZM422 413L424.124 417.526L427.782 415.81L426.871 411.873L422 413ZM405.667 364L400.928 365.595L400.928 365.595L405.667 364ZM384.999 324.329L381.809 328.179L381.809 328.179L384.999 324.329ZM315.105 291.471L312.554 295.772L312.555 295.772L315.105 291.471ZM307.725 282.754L304.124 286.222L304.125 286.223L307.725 282.754ZM292 268L290.228 263.325L284.069 265.659L287.973 270.964L292 268ZM332 213V208H327.418L327.019 212.565L332 213ZM356.2 202.996L352.118 200.109L352.118 200.109L356.2 202.996ZM342 166H337V170.28L341.229 170.94L342 166ZM342.3 123L337.35 122.293L337.35 122.293L342.3 123ZM338.985 61.5988L336.158 65.7226L336.158 65.7226L338.985 61.5988ZM327 57L323.043 53.9435L317.838 60.6826L326.259 61.9448L327 57ZM344 49.544L342.992 54.4413L342.992 54.4413L344 49.544ZM356.953 52.3788L360.903 55.4448L360.903 55.4446L356.953 52.3788ZM346 42.3256L346.83 37.3949L346.83 37.3949L346 42.3256ZM321 51L316.092 51.9551L317.832 60.8939L324.44 54.6285L321 51ZM266 23.9105L266.342 28.8988L266.342 28.8988L266 23.9105ZM208 22.8696L208.696 17.9183L208.696 17.9183L208 22.8696ZM179.255 9.14813L183.468 6.45575L183.467 6.45458L179.255 9.14813ZM173.599 7.04712L176.583 11.0592L176.583 11.0588L173.599 7.04712ZM172 18H167V18.0005L172 18ZM175.85 43.4857C167.007 47.6966 159.94 55.8488 159.109 66.6152L169.079 67.3848C169.58 60.8936 173.845 55.5164 180.15 52.5143L175.85 43.4857ZM159.109 66.6163C158.934 68.8909 159.459 71.6457 159.651 73.0219C159.773 73.8979 159.837 74.5482 159.837 75.0663C159.838 75.5909 159.77 75.7321 159.795 75.6656L169.121 79.2772C170.209 76.4669 169.798 73.3816 169.555 71.6406C169.227 69.283 169.013 68.2403 169.079 67.3837L159.109 66.6163ZM159.795 75.6667C159.041 77.6153 157.364 79.0773 154.183 81.9458C151.36 84.4909 147.568 88.0439 145.979 93.6332L155.599 96.3668C156.334 93.7781 158.091 91.8869 160.88 89.3723C163.31 87.1811 167.305 83.9678 169.121 79.2761L159.795 75.6667ZM145.979 93.633C143.272 103.161 146.189 111.548 149.2 118.621C152.397 126.13 155.47 131.898 155.922 138.349L165.898 137.651C165.294 129.027 161.103 121.05 158.401 114.704C155.514 107.923 153.898 102.348 155.599 96.367L145.979 93.633ZM155.922 138.35C156.171 141.9 156.751 146.45 156.883 151.316C156.947 153.668 156.891 155.837 156.656 157.651C156.41 159.555 156.02 160.612 155.733 161.071L164.211 166.373C165.624 164.114 166.257 161.382 166.574 158.936C166.902 156.4 166.951 153.656 166.88 151.043C166.741 145.979 166.09 140.386 165.898 137.65L155.922 138.35ZM155.733 161.071C154.761 162.625 153.485 163.856 151.868 165.083C151.045 165.707 150.177 166.299 149.206 166.954C148.269 167.586 147.207 168.296 146.18 169.053C144.101 170.586 141.847 172.535 140.098 175.324C138.317 178.165 137.251 181.566 137.046 185.755L147.034 186.245C147.166 183.554 147.806 181.855 148.571 180.636C149.368 179.365 150.499 178.293 152.115 177.102C152.935 176.497 153.798 175.919 154.798 175.244C155.763 174.593 156.842 173.861 157.912 173.05C160.079 171.405 162.368 169.321 164.211 166.373L155.733 161.071ZM137.046 185.755C136.735 192.094 137.71 198.404 140.636 203.875C143.609 209.436 148.441 213.822 155.222 216.401L158.778 207.055C154.184 205.307 151.256 202.53 149.454 199.159C147.603 195.699 146.786 191.308 147.034 186.245L137.046 185.755ZM155.223 216.401C156.738 216.978 158.289 217.217 159.546 217.354C160.662 217.475 162.24 217.57 163.061 217.642C164.119 217.735 164.854 217.846 165.402 218.001C165.923 218.15 166.044 218.276 166.025 218.259L172.847 210.947C169.979 208.271 166.125 207.873 163.934 207.681C162.476 207.553 161.729 207.532 160.627 207.412C159.666 207.308 159.108 207.18 158.777 207.055L155.223 216.401ZM166.025 218.259C166.688 218.878 167.441 219.963 168.247 221.701C169.04 223.412 169.748 225.444 170.48 227.74C171.821 231.941 173.379 237.68 175.808 241.622L184.322 236.378C182.728 233.789 181.641 229.819 180.007 224.7C179.253 222.336 178.39 219.804 177.319 217.494C176.261 215.212 174.853 212.818 172.847 210.947L166.025 218.259ZM175.808 241.622C184.626 255.941 196.282 264.282 207.807 273.847L214.193 266.153C202.02 256.048 192.058 248.937 184.322 236.378L175.808 241.622ZM208.7 265.561C202.649 268.696 198.2 273.649 194.484 277.801C190.537 282.212 187.425 285.693 183.589 287.787L188.381 296.565C194.027 293.482 198.305 288.526 201.936 284.47C205.799 280.153 209.116 276.607 213.3 274.439L208.7 265.561ZM183.589 287.787C172.645 293.762 159.083 297.807 144.886 303.392C131.184 308.783 117.214 315.539 107.942 326.844L115.674 333.186C123.191 324.019 135.009 318.024 148.548 312.698C161.592 307.566 176.724 302.928 188.381 296.565L183.589 287.787ZM107.942 326.844C99.1918 337.514 95.673 351.172 91.9234 362.419L101.41 365.581C105.511 353.282 108.414 342.038 115.674 333.186L107.942 326.844ZM91.9234 362.419C86.5546 378.522 80.5568 395.13 75.2454 411.453L84.7546 414.547C90.1186 398.062 95.8652 382.212 101.41 365.581L91.9234 362.419ZM78.6264 417.808L85.6264 419.808L88.3736 410.192L81.3736 408.192L78.6264 417.808ZM82.34 413.188L75.34 431.188L84.66 434.812L91.66 416.812L82.34 413.188ZM78.4189 437.743L93.4189 442.743L96.5811 433.257L81.5811 428.257L78.4189 437.743ZM90.1243 436.892L80.1243 480.892L89.8757 483.108L99.8757 439.108L90.1243 436.892ZM82.5193 486.341L89.5193 490.341L94.4807 481.659L87.4807 477.659L82.5193 486.341ZM96.8949 487.02L106.895 439.02L97.1051 436.98L87.1051 484.98L96.8949 487.02ZM101.272 442.947C110.775 444.344 120.355 448.145 130.455 451.425L133.545 441.915C124.311 438.915 113.335 434.614 102.728 433.053L101.272 442.947ZM130.456 451.426C131.448 451.748 132.624 452.052 133.507 452.295C134.488 452.565 135.325 452.815 136.06 453.102C136.8 453.39 137.266 453.653 137.546 453.867C137.676 453.967 137.743 454.038 137.773 454.074C137.799 454.107 137.804 454.12 137.805 454.121L146.989 450.167C145.387 446.444 142.038 444.7 139.697 443.786C138.455 443.301 137.201 442.94 136.161 442.653C135.024 442.34 134.249 442.143 133.544 441.914L130.456 451.426ZM137.804 454.12C138.178 454.989 138.374 456.495 138.32 458.859C138.295 459.977 138.223 461.113 138.148 462.336C138.076 463.506 138 464.795 138 466H148C148 465.148 148.055 464.159 148.129 462.946C148.2 461.786 148.287 460.437 148.318 459.086C148.376 456.512 148.271 453.146 146.99 450.168L137.804 454.12ZM138 466V498H148V466H138ZM138 498C138 499.914 137.889 501.365 137.841 503.487C137.799 505.349 137.822 507.507 138.263 509.605C138.723 511.785 139.669 514.072 141.577 516.015C143.468 517.94 145.94 519.158 148.818 519.858L151.182 510.142C149.601 509.757 148.969 509.27 148.712 509.008C148.472 508.763 148.225 508.379 148.049 507.544C147.855 506.625 147.8 505.421 147.839 503.713C147.871 502.264 148 499.936 148 498H138ZM155 515V406H145V515H155ZM155 406V380H145V406H155ZM155 379.99C154.999 379.461 155.173 376.716 154.922 374.712C154.658 372.608 153.683 368.665 149.553 367.018L145.849 376.306C145.371 376.116 145.058 375.753 144.934 375.529C144.864 375.402 144.94 375.479 145 375.956C145.056 376.409 145.071 376.979 145.057 377.707C145.05 378.068 145.037 378.413 145.024 378.806C145.012 379.174 144.999 379.6 145 380.01L155 379.99ZM149.554 367.018C147.8 366.318 145.669 366.071 143.56 366.98C141.561 367.84 140.368 369.406 139.677 370.697C138.376 373.127 137.967 376.244 137.8 378.702C137.621 381.354 137.683 384.137 137.778 386.379C137.885 388.88 138 390.274 138 391H148C148 390.033 147.849 387.822 147.769 385.954C147.679 383.827 147.635 381.477 147.777 379.377C147.933 377.083 148.272 375.83 148.492 375.419C148.562 375.289 148.323 375.816 147.516 376.164C146.597 376.559 145.894 376.324 145.848 376.306L149.554 367.018ZM145.751 386.825C139.147 382.473 133.727 381.006 126.004 381L125.996 391C131.901 391.004 135.385 391.971 140.249 395.175L145.751 386.825ZM121.254 387.574C122.974 392.76 127.742 394.816 130.368 395.956C133.749 397.424 135.317 398.067 136.262 399.271L144.13 393.099C141.24 389.415 136.643 387.779 134.351 386.783C131.304 385.46 130.892 384.867 130.746 384.426L121.254 387.574ZM136.262 399.271C137.812 401.246 138.55 404.672 138.587 409.618C138.604 411.973 138.469 414.405 138.317 416.87C138.17 419.257 138 421.777 138 424H148C148 422.161 148.142 420.018 148.298 417.484C148.449 415.029 148.607 412.283 148.586 409.544C148.547 404.304 147.883 397.884 144.13 393.099L136.262 399.271ZM144.445 419.213L91.445 403.213L88.555 412.787L141.555 428.787L144.445 419.213ZM94.7546 409.547C96.6333 403.773 98.3921 397.313 100.192 390.743C102.006 384.125 103.873 377.349 106.006 370.742C110.313 357.405 115.508 345.426 122.862 337.391L115.486 330.639C106.599 340.349 100.876 354.087 96.4901 367.669C94.2775 374.521 92.3549 381.505 90.5478 388.1C88.7277 394.743 87.0355 400.951 85.2454 406.453L94.7546 409.547ZM122.863 337.39C129.125 330.547 137.896 327.541 147.989 323.163L144.011 313.989C135.082 317.861 123.579 321.795 115.485 330.64L122.863 337.39ZM147.99 323.163C161.712 317.21 174.31 310.898 187.808 305.662L184.192 296.338C170.54 301.634 156.992 308.358 144.01 313.989L147.99 323.163ZM181.129 299.873C178.792 309.969 174.262 319.688 170.143 330.172L179.451 333.828C183.26 324.132 188.314 313.177 190.871 302.127L181.129 299.873ZM170.143 330.172C169.838 330.949 169.458 331.747 168.909 332.987C168.412 334.109 167.835 335.475 167.395 336.919C166.567 339.644 165.842 343.925 168.578 347.747L176.71 341.925C176.708 341.924 176.654 341.88 176.645 341.598C176.633 341.248 176.703 340.681 176.963 339.829C177.219 338.987 177.593 338.073 178.053 337.035C178.461 336.113 179.043 334.867 179.451 333.828L170.143 330.172ZM168.578 347.746C169.962 349.679 171.82 351.078 174.098 351.648C176.272 352.191 178.294 351.846 179.859 351.332C182.758 350.382 185.517 348.311 186.848 347.388L181.152 339.17C180.244 339.799 179.49 340.343 178.662 340.857C177.845 341.365 177.215 341.676 176.743 341.83C176.277 341.983 176.271 341.883 176.523 341.946C176.882 342.036 176.927 342.229 176.71 341.926L168.578 347.746ZM186.848 347.389C188.53 346.223 190.485 344.615 192.405 343.024C194.395 341.375 196.446 339.66 198.532 338.06C200.625 336.456 202.612 335.078 204.412 334.098C206.286 333.077 207.543 332.719 208.254 332.683L207.746 322.695C204.833 322.844 202.014 324.016 199.628 325.316C197.169 326.655 194.713 328.387 192.448 330.124C190.176 331.866 187.954 333.724 186.024 335.324C184.025 336.98 182.414 338.295 181.152 339.169L186.848 347.389ZM208.254 332.683C208.058 332.692 208.388 332.623 209.421 333.251C210.382 333.834 211.511 334.75 212.778 335.942C214.028 337.119 215.26 338.417 216.473 339.704C217.613 340.914 218.859 342.249 219.925 343.217L226.645 335.811C225.941 335.173 225.021 334.195 223.751 332.846C222.553 331.575 221.13 330.07 219.631 328.66C218.149 327.265 216.436 325.811 214.612 324.703C212.86 323.639 210.461 322.557 207.746 322.695L208.254 332.683ZM219.925 343.217C223.311 346.288 226.521 348.838 230.065 352.194C233.443 355.392 236.092 358.42 237.5 361.236L246.444 356.764C244.224 352.323 240.509 348.311 236.94 344.932C233.537 341.71 229.218 338.146 226.645 335.811L219.925 343.217ZM237.5 361.236C238.949 364.135 239.328 369.095 239.059 375.443C238.931 378.479 238.677 381.546 238.443 384.558C238.214 387.499 238 390.453 238 393H248C248 390.902 248.18 388.329 248.413 385.332C248.64 382.405 248.913 379.122 249.051 375.865C249.314 369.628 249.179 362.233 246.444 356.764L237.5 361.236ZM243 398H260V388H243V398ZM265 393C265 390.766 264.82 388.217 264.634 385.717C264.442 383.15 264.238 380.572 264.143 378.022C263.943 372.677 264.305 368.625 265.5 366.236L256.556 361.764C254.103 366.67 253.951 373.083 254.149 378.396C254.253 381.175 254.476 383.975 254.661 386.462C254.852 389.017 255 391.199 255 393H265ZM265.5 366.236C267.037 363.162 269.858 360.044 273.448 356.66C276.732 353.564 281.103 349.876 284.2 346.611L276.944 339.729C274.04 342.792 270.597 345.604 266.588 349.383C262.885 352.874 258.934 357.007 256.556 361.764L265.5 366.236ZM284.201 346.61C285.191 345.565 286.395 344.09 287.531 342.716C288.733 341.263 289.991 339.757 291.282 338.37C292.588 336.966 293.796 335.829 294.858 335.059C296.011 334.222 296.474 334.2 296.358 334.206L295.828 324.22C293.08 324.366 290.709 325.714 288.984 326.965C287.168 328.283 285.456 329.952 283.961 331.558C282.45 333.181 281.026 334.891 279.824 336.343C278.557 337.876 277.636 338.999 276.943 339.73L284.201 346.61ZM296.357 334.206C296.743 334.186 297.743 334.345 299.511 335.23C301.181 336.067 303.07 337.312 305.083 338.805C307.082 340.287 309.059 341.905 310.947 343.45C312.76 344.936 314.61 346.456 316.136 347.522L321.864 339.326C320.725 338.529 319.217 337.298 317.283 335.714C315.422 334.19 313.263 332.421 311.039 330.772C308.83 329.134 306.41 327.502 303.99 326.289C301.666 325.126 298.793 324.063 295.829 324.22L296.357 334.206ZM316.136 347.523C317.364 348.38 319.852 350.293 322.484 351.233C323.929 351.75 325.728 352.109 327.709 351.795C329.756 351.47 331.586 350.491 333.127 348.992L326.151 341.826C325.925 342.046 325.933 341.952 326.142 341.919C326.286 341.896 326.232 341.954 325.85 341.817C325.448 341.673 324.911 341.397 324.185 340.931C323.427 340.445 322.771 339.959 321.864 339.325L316.136 347.523ZM333.126 348.992C336.797 345.419 336.211 340.747 335.479 338.006C335.084 336.527 334.526 335.128 334.045 333.992C333.496 332.696 333.154 331.975 332.852 331.194L323.526 334.806C323.892 335.749 324.476 337.04 324.838 337.894C325.267 338.908 325.606 339.795 325.817 340.587C326.299 342.389 325.77 342.198 326.152 341.826L333.126 348.992ZM332.851 331.194C328.652 320.353 324.885 310.139 320.665 299.2L311.335 302.8C315.331 313.159 319.48 324.359 323.527 334.806L332.851 331.194ZM314.389 305.733C326.484 309.851 337.597 315.748 350.001 321.159L353.999 311.993C342.539 306.994 330.192 300.549 317.611 296.267L314.389 305.733ZM350.001 321.159C363.088 326.867 374.103 330.379 381.788 340.104L389.634 333.904C379.975 321.683 365.72 317.105 353.999 311.993L350.001 321.159ZM381.788 340.104C385.362 344.627 387.859 350.207 390.035 356.447C391.119 359.558 392.093 362.737 393.095 365.993C394.086 369.212 395.106 372.51 396.243 375.686L405.657 372.314C404.608 369.384 403.651 366.297 402.652 363.051C401.664 359.84 400.634 356.474 399.477 353.155C397.17 346.536 394.234 339.725 389.634 333.904L381.788 340.104ZM396.243 375.686C399.061 383.556 401.56 391.478 404.256 399.579L413.744 396.421C411.114 388.518 408.525 380.324 405.657 372.314L396.243 375.686ZM404.256 399.579C404.518 400.368 404.906 401.353 405.15 402.006C405.435 402.773 405.654 403.415 405.796 403.988C406.126 405.321 405.774 405.198 406.098 404.729L414.327 410.411C416.526 407.225 416.021 403.677 415.502 401.583C415.22 400.444 414.84 399.373 414.52 398.515C414.158 397.543 413.934 396.992 413.744 396.421L404.256 399.579ZM406.097 404.73C406.123 404.691 405.987 404.902 405.348 405.237C404.721 405.566 403.862 405.886 402.753 406.2C401.652 406.511 400.485 406.768 399.237 407.04C398.076 407.292 396.717 407.584 395.559 407.932L398.441 417.508C399.143 417.296 400.07 417.093 401.364 416.811C402.573 416.548 404.033 416.23 405.474 415.823C408.021 415.102 412.036 413.729 414.327 410.41L406.097 404.73ZM395.558 407.932C382.722 411.799 371.238 416.294 358.883 419.126L361.117 428.874C373.818 425.962 386.678 421.051 398.442 417.508L395.558 407.932ZM365 424C365 421.899 364.831 419.49 364.67 417.17C364.504 414.777 364.339 412.386 364.297 410.048C364.208 405.092 364.738 401.616 365.958 399.703L357.526 394.327C354.55 398.995 354.209 405.228 354.298 410.227C354.345 412.866 354.531 415.514 354.694 417.862C354.862 420.283 355 422.317 355 424H365ZM365.957 399.704C366.798 398.387 368.268 397.661 371.566 396.153C374.162 394.966 378.996 392.863 380.747 387.57L371.253 384.43C371.055 385.03 370.556 385.619 367.408 387.059C364.962 388.177 360.278 390.012 357.527 394.326L365.957 399.704ZM375.986 381C368.689 381.021 363.235 382.564 357.102 386.925L362.898 395.075C367.203 392.012 370.603 391.015 376.014 391L375.986 381ZM365 391C365 390.068 365.47 383.361 364.964 378.225C364.72 375.748 364.181 372.432 362.534 369.988C361.612 368.618 360.078 367.138 357.762 366.648C355.497 366.168 353.436 366.838 351.853 367.733L356.773 376.439C357.077 376.267 356.61 376.626 355.689 376.43C354.716 376.224 354.275 375.625 354.24 375.573C354.237 375.569 354.398 375.834 354.586 376.569C354.763 377.26 354.908 378.147 355.012 379.205C355.462 383.774 355 388.658 355 391H365ZM351.852 367.733C348.331 369.724 347.4 373.268 347.115 375.481C346.847 377.567 347.002 380.204 347 380.989L357 381.011C357.001 380.588 356.991 380.152 356.981 379.765C356.971 379.358 356.961 378.992 356.957 378.618C356.949 377.863 356.969 377.257 357.033 376.757C357.181 375.612 357.403 376.083 356.774 376.439L351.852 367.733ZM347 381V407H357V381H347ZM347 407V515H357V407H347ZM353.62 519.73C356.568 518.721 359.039 517.334 360.941 515.397C362.887 513.416 363.961 511.141 364.524 508.825C365.063 506.611 365.139 504.333 365.124 502.286C365.117 501.248 365.084 500.17 365.055 499.141C365.026 498.09 365 497.057 365 496H355C355 497.208 355.03 498.363 355.059 499.421C355.089 500.5 355.118 501.449 355.125 502.356C355.138 504.199 355.047 505.477 354.807 506.461C354.592 507.344 354.277 507.911 353.807 508.39C353.292 508.914 352.32 509.606 350.38 510.27L353.62 519.73ZM365 496C365 492.77 364.728 489.029 364.421 485.23C364.108 481.361 363.754 477.39 363.542 473.435C363.106 465.286 363.375 458.41 365.207 454.083L355.999 450.183C353.159 456.888 353.127 465.944 353.557 473.97C353.778 478.102 354.15 482.279 354.453 486.037C354.763 489.865 355 493.228 355 496H365ZM365.207 454.083C365.201 454.097 365.29 453.885 365.737 453.491C366.183 453.098 366.857 452.638 367.81 452.139C369.734 451.131 372.31 450.213 375.256 449.376C378.169 448.548 381.229 447.857 384.066 447.234C386.787 446.636 389.52 446.059 391.41 445.503L388.59 435.909C387.132 436.337 384.883 436.816 381.922 437.466C379.077 438.091 375.755 438.838 372.521 439.757C369.321 440.667 365.986 441.805 363.17 443.28C360.52 444.668 357.427 446.811 355.999 450.183L365.207 454.083ZM391.41 445.503C392.266 445.251 393.369 444.84 394.048 444.603C394.879 444.313 395.538 444.111 396.092 444.002C396.672 443.888 396.817 443.943 396.696 443.917C396.432 443.861 396.041 443.654 395.803 443.332L403.847 437.39C400.937 433.452 396.508 433.728 394.161 434.19C392.886 434.441 391.682 434.838 390.756 435.16C389.678 435.536 389.132 435.75 388.59 435.909L391.41 445.503ZM395.803 443.332C396.337 444.055 396.891 445.626 397.364 448.291C397.582 449.526 397.754 450.794 397.936 452.118C398.109 453.383 398.3 454.762 398.548 455.988L408.35 454.012C408.176 453.145 408.025 452.084 407.843 450.757C407.668 449.489 407.47 448.012 407.21 446.547C406.726 443.812 405.89 440.156 403.847 437.39L395.803 443.332ZM398.548 455.988C399.572 461.068 400.705 466.115 401.831 471.105C402.96 476.111 404.081 481.054 405.103 486.01L414.897 483.99C413.852 478.924 412.709 473.884 411.585 468.904C410.458 463.907 409.349 458.965 408.35 454.012L398.548 455.988ZM411.83 489.653C414.693 488.527 417.027 486.818 418.655 484.469C420.267 482.142 420.938 479.547 421.094 477.042C421.389 472.279 419.843 467.029 418.314 462.517C416.646 457.595 414.946 453.382 413.908 449.317C412.845 445.152 413.006 442.908 413.613 441.766L404.783 437.072C402.275 441.79 403.084 447.346 404.219 451.79C405.379 456.336 407.426 461.545 408.843 465.726C410.398 470.316 411.272 473.851 411.113 476.423C411.04 477.587 410.765 478.298 410.435 478.773C410.121 479.227 409.517 479.817 408.17 480.347L411.83 489.653ZM413.613 441.766C413.514 441.952 413.517 441.803 414.084 441.46C414.631 441.129 415.431 440.783 416.491 440.443C418.755 439.719 420.913 439.384 423.127 438.871L420.873 429.129C419.505 429.445 416.211 430.034 413.444 430.919C411.989 431.385 410.378 432.014 408.907 432.904C407.455 433.783 405.831 435.1 404.783 437.072L413.613 441.766ZM426.945 433.259C426.572 430.77 425.668 428.318 424.909 426.345C424.074 424.173 423.402 422.545 422.993 420.998C422.587 419.46 422.678 418.799 422.751 418.575C422.773 418.508 422.808 418.425 422.935 418.293C423.082 418.141 423.419 417.857 424.124 417.526L419.876 408.474C416.652 409.986 414.281 412.294 413.243 415.475C412.286 418.412 412.735 421.321 413.326 423.555C413.915 425.782 414.882 428.131 415.576 429.935C416.346 431.938 416.863 433.461 417.055 434.741L426.945 433.259ZM426.871 411.873C422.958 394.956 415.652 377.991 410.406 362.405L400.928 365.595C406.564 382.341 413.35 397.792 417.129 414.127L426.871 411.873ZM410.406 362.405C405.805 348.735 401.815 331.77 388.189 320.479L381.809 328.179C392.679 337.186 395.841 350.477 400.928 365.595L410.406 362.405ZM388.189 320.479C377.739 311.819 364.938 306.563 352.588 301.962C339.969 297.261 327.951 293.276 317.655 287.17L312.555 295.772C323.839 302.463 337.032 306.838 349.097 311.333C361.431 315.928 372.787 320.702 381.809 328.179L388.189 320.479ZM317.656 287.17C316.88 286.71 316.22 285.993 315.258 284.58C314.447 283.39 313.078 281.103 311.325 279.285L304.125 286.223C305.098 287.234 305.671 288.269 306.994 290.211C308.166 291.931 309.833 294.158 312.554 295.772L317.656 287.17ZM311.326 279.286C308.573 276.427 305.393 273.942 302.802 271.782C300.081 269.514 297.802 267.448 296.027 265.036L287.973 270.964C290.509 274.41 293.587 277.12 296.398 279.463C299.339 281.915 301.866 283.878 304.124 286.222L311.326 279.286ZM293.772 272.675C304.963 268.434 315.221 259.176 322.857 248.512C330.505 237.832 335.96 225.134 336.981 213.435L327.019 212.565C326.192 222.033 321.627 233.053 314.727 242.69C307.815 252.342 298.997 260.001 290.228 263.325L293.772 272.675ZM332 218C342.2 218 352.739 216.551 360.282 205.883L352.118 200.109C347.497 206.643 341.342 208 332 208V218ZM360.282 205.883C366.051 197.725 366.798 187.394 363.687 178.779C360.552 170.097 353.31 162.705 342.771 161.06L341.229 170.94C347.598 171.934 352.181 176.359 354.281 182.175C356.405 188.057 355.798 194.905 352.118 200.109L360.282 205.883ZM347 166C347 158.967 346.573 151.335 346.407 144.329C346.237 137.136 346.321 130.211 347.25 123.707L337.35 122.293C336.302 129.629 336.236 137.214 336.41 144.566C336.588 152.105 337 159.053 337 166H347ZM347.25 123.707C347.964 118.708 349.592 113.606 351.423 108.149C353.199 102.854 355.207 97.117 356.262 91.4869C357.332 85.7762 357.521 79.7316 355.365 73.7459C353.189 67.7058 348.83 62.2868 341.812 57.475L336.158 65.7226C341.838 69.6176 344.637 73.4727 345.956 77.1347C347.295 80.8512 347.315 84.9368 346.433 89.6451C345.536 94.4341 343.808 99.4056 341.942 104.968C340.13 110.369 338.21 116.274 337.35 122.293L347.25 123.707ZM341.812 57.4751C337.468 54.4965 332.733 52.8035 327.741 52.0552L326.259 61.9448C329.939 62.4963 333.208 63.7 336.158 65.7226L341.812 57.4751ZM330.957 60.0565C334.19 55.8714 338.84 53.5868 342.992 54.4413L345.008 44.6467C335.814 42.7541 327.67 47.9528 323.043 53.9435L330.957 60.0565ZM342.992 54.4413C342.92 54.4264 343.031 54.4446 343.421 54.6052C343.78 54.7534 344.221 54.957 344.782 55.2266C345.813 55.722 347.305 56.4722 348.744 57.0663C350.145 57.6446 352.031 58.3117 353.992 58.4202C356.109 58.5375 358.921 57.997 360.903 55.4448L353.003 49.3128C353.693 48.4243 354.622 48.4398 354.545 48.4355C354.312 48.4226 353.693 48.2907 352.56 47.8229C351.465 47.3709 350.392 46.8277 349.113 46.2128C348.091 45.7221 346.487 44.9511 345.008 44.6467L342.992 54.4413ZM360.903 55.4446C361.874 54.1931 362.597 52.6975 362.795 50.9904C362.996 49.2675 362.619 47.6984 361.975 46.3905C360.784 43.9726 358.634 42.3264 356.948 41.2808C353.467 39.1218 349.042 37.7672 346.83 37.3949L345.17 47.2563C346.311 47.4483 349.467 48.4084 351.677 49.779C352.837 50.4982 353.059 50.9204 353.004 50.8079C352.927 50.6526 352.809 50.2954 352.862 49.8351C352.914 49.3907 353.084 49.2085 353.003 49.313L360.903 55.4446ZM346.83 37.3949C335.001 35.4045 325.396 39.9421 317.56 47.3715L324.44 54.6285C330.692 48.7013 337.275 45.9277 345.17 47.2563L346.83 37.3949ZM325.908 50.0449C324.355 42.0638 321.38 35.7688 317.142 30.9525C312.902 26.1333 307.639 23.0711 301.946 21.1784C290.823 17.481 277.51 18.1105 265.658 18.9222L266.342 28.8988C278.471 28.0682 289.826 27.6874 298.791 30.6678C303.142 32.114 306.779 34.3128 309.635 37.5585C312.494 40.8072 314.813 45.3811 316.092 51.9551L325.908 50.0449ZM265.658 18.9222C247.148 20.1898 226.701 20.4492 208.696 17.9183L207.304 27.8209C226.299 30.491 247.53 30.187 266.342 28.8988L265.658 18.9222ZM208.696 17.9183C196.899 16.2602 188.671 14.5979 183.468 6.45575L175.042 11.8405C183.027 24.3357 196.045 26.2384 207.304 27.8209L208.696 17.9183ZM183.467 6.45458C182.625 5.13691 181.19 3.37693 179.106 2.31062C178.001 1.74495 176.604 1.32238 175.008 1.40657C173.379 1.49253 171.886 2.08988 170.615 3.03542L176.583 11.0588C176.447 11.1604 176.078 11.364 175.535 11.3927C175.025 11.4196 174.675 11.2762 174.55 11.2124C174.444 11.1581 174.478 11.1529 174.617 11.2945C174.747 11.4275 174.899 11.6173 175.043 11.8417L183.467 6.45458ZM170.615 3.03501C168.807 4.37994 167.902 6.21152 167.436 7.72222C166.972 9.22552 166.831 10.7641 166.793 12.0409C166.754 13.3428 166.819 14.6229 166.88 15.6496C166.949 16.7933 167 17.4743 167 18H177C177 17.0801 176.915 15.9193 176.862 15.051C176.803 14.0657 176.764 13.1636 176.788 12.3388C176.813 11.4889 176.903 10.9565 176.992 10.6702C177.078 10.3914 177.046 10.7149 176.583 11.0592L170.615 3.03501ZM167 18.0005C167.001 29.4699 169.302 39.4021 173.338 49.8082L182.662 46.1918C178.974 36.6858 177.001 27.9874 177 17.9995L167 18.0005Z" fill="#D9D9D9" mask="url(#path-1-inside-1_42_12226)"/>
<path d="M180 24C181.446 31.783 181.746 41.48 187.637 47.5702C189.765 49.7702 200.254 51.7403 199.369 55.7438C198.851 58.0844 195.334 56.6951 193.999 56.2894C187.808 54.4075 181.015 54.0457 176.214 59.1088C172.1 63.4466 169.796 72.6159 174.703 77.4005C176.383 79.0385 183.071 79.438 182.369 82.787C181.807 85.4648 170.616 85.1916 168.004 86.3634C155.455 91.9922 156.657 106.292 163 116H164C164.123 114.502 165.372 104.403 168.698 107.06C171.248 109.098 169.005 118.021 169 121V164H177C177 146.928 174.296 127.387 179.75 111C187.237 88.5045 213.096 77.9406 235 77L225 90C250.362 89.4764 268.703 69.6241 294 80C298.85 72.8107 313.238 57.8851 312.337 49C311.317 38.9364 300.381 31.4998 291 31.0401C266.386 29.8341 241.677 33.6004 217 31.9105C203.93 31.0154 192.544 26.2292 180 24Z" fill="#0C0C0C"/>
<path d="M312 52L294 80C271.07 66.9661 248.543 88.989 225 90L235 77C227.943 77.1457 220.761 78.415 214 80.4383C173.09 92.6806 177 129.374 177 164C185.82 163.707 187.592 151.816 194.015 146.468C211.132 132.213 236.836 140.653 243 162L259 163C268.658 134.684 313.826 129.613 319 164H325C325 145.741 329.34 120.962 321.687 104C318.921 97.8697 314.523 92.1923 308 89.8195C305.608 88.9495 297.414 90.6547 297.113 87.794C296.795 84.7578 300.238 81.3068 301.806 79C306.886 71.5233 316.04 61.6276 312 52Z" fill="#FBFAFB"/>
<path d="M302 88C332.77 99.8666 325 137.129 325 164H334C334 146.346 335.865 127.52 333.714 110C333.087 104.897 325.958 91.3179 327.241 87.5424C328.367 84.2271 332.307 88.9459 333.046 90.0479C336.167 94.7049 337.747 100.465 338 106C349.368 92.2276 343.522 58.7584 320.04 64.3326C312.716 66.0712 305.457 81.7904 302 88Z" fill="#0C0C0C"/>
<path d="M207 111.518C201.886 112.607 196.653 114.967 193.244 119.043C191.26 121.415 189.822 127.377 195.045 126.252C199.458 125.302 202.46 120.747 207 119.558C210.993 118.512 218.212 121.393 221.392 118.958C228.884 113.222 209.936 110.893 207 111.518Z" fill="#060504"/>
<path d="M288 111.468C285.095 112.031 276.494 116.9 283.153 119.307C288.184 121.126 293.691 117.813 299 120.457C302.285 122.093 306.547 127.907 310.681 126.338C315.685 124.44 310.064 118.192 307.981 116.532C302.504 112.171 294.888 110.133 288 111.468Z" fill="#060504"/>
<path d="M212 147.529C182.971 150.065 185.752 194.705 215 192.482C244.05 190.274 240.884 145.004 212 147.529Z" fill="#FBFAFB"/>
<path d="M288 147.61C259.124 149.268 261.135 193.753 290 192.402C319.315 191.03 317.212 145.932 288 147.61Z" fill="#FBFAFB"/>
<path d="M221.467 169C217.323 168.818 216.091 166.993 215.467 163C193.859 166.925 220.288 190.513 221.467 169Z" fill="#060504"/>
<path d="M296 168C291.936 167.814 291.293 165.842 291 162C289.27 162.275 287.604 162.451 286.034 163.318C270.773 171.743 299.401 186.451 296 168Z" fill="#060504"/>
<path d="M183 173H177C177 193.633 175.345 214.309 185.876 233C210.821 277.276 275.66 285.076 308.535 245C326.08 223.613 326 199.187 326 173H320C316.405 190.371 300.737 205.012 282 200.076C274.617 198.131 270.029 193.23 264 189C264 196.553 265.615 206.366 261.121 212.957C259.902 214.745 250.855 222.356 249.631 216.823C249.126 214.536 256.236 211.298 257.427 208.956C261.279 201.385 259.206 188.309 258.985 180C258.892 176.48 258.545 172.352 254.867 170.742C243.196 165.634 241.074 185.739 234.907 191.907C217.002 209.812 185.214 198.364 183 173Z" fill="#FBFAFB"/>
<path d="M168 205L166.397 190.279L156 183L168 184V173C144.392 173.198 144.392 204.802 168 205Z" fill="#FBFAFB"/>
<path d="M334 173V184L346 182L336.434 190.279L334 205C357.888 204.8 357.888 173.2 334 173Z" fill="#FBFAFB"/>
<path d="M280 225C280.07 244.744 249.575 238.492 238 241V243C247.177 247.416 261.811 245.661 271 241.851C278.343 238.807 282.758 234.262 291 235C290.087 229.596 285.046 226.374 280 225Z" fill="#060504"/>
<path d="M281 274C259.871 283.825 242.342 277.127 221 275C221 285.265 217.416 303.777 222.028 313C225.661 320.267 234.286 325.7 240.09 331.184C243.36 334.275 249.104 342.793 254 342.793C258.883 342.793 264.837 334.163 268 331C272.197 326.803 278.285 322.374 280.972 317C282.719 313.505 282 308.787 282 305C282 295.94 284.507 282.358 281 274Z" fill="#FBFAFB"/>
<path d="M211 279C196.318 293.051 187.746 313.971 183 334C191.307 328.874 204.426 322.29 210.397 314.535C214.648 309.013 213.63 285.267 211 279Z" fill="#FBFAFB"/>
<path d="M290 279C290 288.318 286.915 304.138 290.603 312.7C294.101 320.819 312.414 329.773 320 334C312.966 315.765 308.641 288.658 290 279Z" fill="#FBFAFB"/>
<path d="M185.498 300.955L185.428 300.182L184.753 300.565C176.845 305.064 167.875 308.405 158.821 311.778C157.101 312.419 155.378 313.061 153.659 313.712C142.914 317.781 132.326 322.209 123.691 328.984L123.691 328.984C114.259 336.387 110.865 346.245 107.283 356.652C106.809 358.028 106.332 359.415 105.837 360.806C104.506 364.548 103.03 368.367 101.527 372.242C101.447 372.447 101.368 372.651 101.289 372.856C99.8629 376.53 98.4179 380.254 97.0571 384.001C94.1845 391.91 91.6781 399.942 90.5054 407.88L90.4418 408.31L90.859 408.433L141.859 423.426L142.5 423.615V422.946C142.5 421.005 142.553 419.074 142.607 417.169L142.617 416.851C142.668 415.057 142.719 413.288 142.726 411.568C142.741 407.93 142.559 404.476 141.754 401.418C140.945 398.351 139.505 395.667 136.997 393.594C134.598 391.61 131.262 390.218 126.665 389.548C127.262 387.925 128.102 387.011 129.051 386.542C130.119 386.014 131.422 385.998 132.885 386.332C134.345 386.665 135.905 387.333 137.441 388.1C138.389 388.574 139.302 389.071 140.171 389.545C140.721 389.844 141.254 390.135 141.768 390.404L142.5 390.787V389.961C142.5 389.672 142.49 389.244 142.478 388.707C142.421 386.257 142.312 381.55 142.854 377.582C143.018 376.377 143.241 375.255 143.539 374.296C143.838 373.331 144.204 372.562 144.636 372.039C145.06 371.526 145.526 371.27 146.061 371.254C146.617 371.238 147.342 371.479 148.271 372.171L148.271 372.171C149.485 373.075 150.287 374.806 150.764 377.123C151.237 379.423 151.371 382.199 151.333 385.069C151.296 387.936 151.089 390.871 150.89 393.485C150.868 393.771 150.846 394.054 150.825 394.333C150.652 396.584 150.5 398.563 150.5 399.957V482.92C150.5 484.734 150.288 487.276 150.036 490.191L149.994 490.678C149.753 493.458 149.486 496.534 149.344 499.572C149.193 502.786 149.181 505.976 149.491 508.745C149.798 511.497 150.431 513.909 151.628 515.504C152.718 516.958 154.598 517.842 156.484 518.484C157.438 518.809 158.419 519.079 159.338 519.328C159.42 519.35 159.501 519.372 159.582 519.394C160.413 519.619 161.181 519.826 161.842 520.046L162 519.571L161.843 520.046C170.985 523.08 180.465 525.504 189.902 527.391C229.262 535.261 269.688 535.668 309.098 527.791C319.568 525.698 330.014 523.088 340.158 519.712C340.882 519.471 341.733 519.243 342.658 518.996L342.916 518.927C343.933 518.654 345.022 518.357 346.079 517.999C348.167 517.291 350.24 516.308 351.381 514.684C352.564 513 353.195 510.556 353.502 507.788C353.81 505.007 353.799 501.832 353.65 498.635C353.51 495.653 353.25 492.635 353.013 489.885C352.996 489.686 352.979 489.487 352.962 489.291C352.711 486.374 352.5 483.807 352.5 481.921V398.957C352.5 397.72 352.361 395.881 352.199 393.754C352.175 393.437 352.151 393.113 352.126 392.783C351.935 390.234 351.736 387.336 351.699 384.51C351.662 381.68 351.788 378.947 352.239 376.723C352.696 374.472 353.46 372.873 354.586 372.14L354.313 371.721L354.586 372.14C355.419 371.597 356.05 371.465 356.525 371.543C356.992 371.62 357.415 371.92 357.8 372.479C358.591 373.629 359.071 375.664 359.336 378.047C359.75 381.782 359.613 386.085 359.537 388.487C359.516 389.131 359.5 389.638 359.5 389.961V390.735L360.206 390.417C360.824 390.137 365.521 388.199 369.574 387.133C370.585 386.867 371.546 386.658 372.388 386.542C373.239 386.424 373.93 386.408 374.418 386.501C374.912 386.595 375.056 386.768 375.098 386.915C375.157 387.12 375.113 387.551 374.649 388.331C373.955 389.5 372.93 390.278 371.693 390.897C370.721 391.384 369.653 391.758 368.533 392.15C368.209 392.264 367.881 392.379 367.549 392.498C364.629 393.552 361.574 394.933 360.135 398.786C358.852 402.222 358.707 406.534 358.868 410.818C358.936 412.64 359.061 414.472 359.181 416.24C359.203 416.556 359.224 416.87 359.245 417.182C359.383 419.242 359.5 421.195 359.5 422.946V423.611L360.139 423.427L412.139 408.433L412.596 408.301L412.487 407.838C409.592 395.621 405.031 383.356 400.578 371.382C399.256 367.828 397.944 364.299 396.688 360.804C396.06 359.059 395.469 357.302 394.88 355.548C392.281 347.82 389.702 340.147 384.05 333.696C378.731 327.624 370.795 323.276 362.457 319.679C358.282 317.878 353.992 316.258 349.861 314.704L349.573 314.595C345.541 313.079 341.672 311.623 338.199 310.113C336.221 309.253 334.267 308.292 332.288 307.319C330.85 306.612 329.398 305.898 327.914 305.212C324.424 303.597 320.833 302.175 317.088 301.507L316.218 301.352L316.533 302.178L332.37 343.732C329.971 344.871 327.813 345.305 325.801 345.238C323.674 345.168 321.678 344.537 319.699 343.539C317.716 342.538 315.764 341.174 313.725 339.65C313.098 339.182 312.462 338.697 311.814 338.204C310.367 337.102 308.864 335.957 307.286 334.855C306.65 334.41 305.955 333.859 305.201 333.26C304.964 333.072 304.722 332.88 304.474 332.685C303.444 331.876 302.328 331.03 301.169 330.328C298.874 328.938 296.269 328.026 293.776 329.277C291.784 330.277 289.983 331.894 288.326 333.606C287.555 334.402 286.808 335.226 286.083 336.024L285.915 336.21C285.135 337.069 284.384 337.893 283.647 338.63C281.919 340.357 279.829 342.195 277.599 344.137C277.369 344.338 277.136 344.54 276.903 344.743C274.885 346.499 272.777 348.333 270.754 350.226C266.252 354.44 262.102 359.013 260.275 363.794C259.229 366.531 259.133 369.843 259.278 373.194C259.334 374.502 259.427 375.808 259.518 377.098C259.664 379.161 259.806 381.182 259.795 383.096C259.776 386.196 259.345 388.827 257.953 390.652C256.588 392.442 254.209 393.568 250.015 393.444C248.214 393.391 246.822 392.971 245.742 392.284C244.664 391.598 243.865 390.626 243.281 389.418C242.103 386.978 241.82 383.619 241.9 379.881C241.949 377.598 242.13 375.232 242.31 372.886C242.425 371.382 242.539 369.887 242.618 368.427C242.816 364.742 242.785 361.295 241.866 358.802L241.421 358.966L241.866 358.802C240.173 354.211 235.986 349.534 231.423 345.245C229.133 343.093 226.731 341.023 224.474 339.097C224.172 338.84 223.874 338.585 223.578 338.333C221.656 336.696 219.872 335.176 218.377 333.801C218.008 333.461 217.605 333.071 217.176 332.655C216.168 331.679 215.015 330.561 213.799 329.618C212.062 328.272 210.064 327.168 207.964 327.302L207.964 327.302C205.75 327.444 203.031 328.497 200.15 330.04C197.256 331.59 194.145 333.665 191.133 335.906C185.217 340.308 179.64 345.387 176.781 348.479H176.235C173.451 345.074 172.668 341.486 173.045 337.751C173.43 333.925 175.033 329.94 176.996 325.842C177.669 324.437 178.387 323.014 179.109 321.583C180.475 318.875 181.857 316.135 182.982 313.424C184.706 309.266 185.873 305.072 185.498 300.955Z" fill="#0C0C0C" stroke="#0C0C0C"/>
<path d="M214 323C217.351 327.757 221.637 331.866 226 335.715C229.071 338.423 232.095 341.111 235 344.001C236.446 345.439 251.625 357.701 248.654 347.165C247.774 344.044 243.215 341.186 241 338.996C234.687 332.755 223.22 315.939 214 323Z" fill="#FBFAFB"/>
<path d="M250 356L258 357.867L268 349L291 324C284.204 319.951 280.994 324.016 276 329C267.347 337.635 257.044 345.999 250 356Z" fill="#FBFAFB"/>
<path d="M248 361V388H255C255 378.284 258.437 365.427 248 361Z" fill="#FBFAFB"/>
<path d="M94 417L91 428L142 443V431L94 417Z" fill="#FBFAFB"/>
<path d="M360 445L412 428L408 418L374 428.294L361.028 433.513L360 445Z" fill="#FBFAFB"/>
</g>
<mask id="mask0_42_12226" style="mask-type:alpha" maskUnits="userSpaceOnUse" x="248" y="23" width="248" height="534">
<rect x="248" y="23.4425" width="248" height="532.597" fill="#D9D9D9"/>
</mask>
<g mask="url(#mask0_42_12226)">
<g clip-path="url(#clip1_42_12226)">
<path d="M178 48C170.426 51.6065 164.76 58.3712 164.094 67C163.853 70.1312 165.572 74.5951 164.458 77.4714C161.888 84.1117 153.113 86.822 150.789 95C146.381 110.509 159.854 122.925 160.91 138C161.351 144.286 163.372 158.286 159.972 163.722C154.342 172.725 142.714 172.24 142.04 186C141.481 197.402 145.625 207.401 157 211.728C160.692 213.132 166.49 211.855 169.436 214.603C174.774 219.583 176.042 232.469 180.065 239C188.342 252.439 199.151 260.165 211 270C200.765 275.303 195.467 286.999 185.985 292.176C163.384 304.514 128.597 309.543 111.808 330.015C103.803 339.776 100.592 352.227 96.6667 364C91.2099 380.367 85.3377 396.596 80 413L87 415L80 433L95 438L85 482L92 486L102 438C112.055 439.479 122.333 443.53 132 446.67C135.394 447.772 140.817 448.474 142.397 452.144C144.052 455.991 143 461.887 143 466V498C143 505.7 141.083 512.831 150 515V406V380C149.995 377.492 150.667 372.845 147.701 371.662C140.87 368.937 143 387.614 143 391C137.266 387.222 132.814 386.005 126 386C127.866 391.627 136.361 391.297 140.196 396.185C145.499 402.945 143 415.876 143 424L90 408C97.3376 385.449 102.933 351.76 119.174 334.015C126.352 326.171 136.489 322.701 146 318.576C159.352 312.784 172.425 306.266 186 301C183.553 311.573 178.761 321.91 174.797 332C173.37 335.632 169.96 341.087 172.644 344.836C175.845 349.309 180.744 345.536 184 343.279C189.888 339.199 200.752 328.058 208 327.689C213.039 327.433 219.745 336.302 223.285 339.514C229.244 344.92 238.344 351.743 241.972 359C246.156 367.368 243 383.709 243 393H260C260 384.929 257.38 371.295 261.028 364C264.943 356.169 274.571 349.498 280.572 343.17C283.939 339.618 290.83 329.492 296.093 329.213C302.795 328.858 313.67 339.699 319 343.424C322.126 345.608 326.106 348.848 329.639 345.409C332.928 342.208 329.524 336.447 328.189 333C324.066 322.356 320.108 311.649 316 301C328.338 305.2 340.068 311.371 352 316.576C364.404 321.986 377.039 326.031 385.711 337.004C393.885 347.348 396.577 361.787 400.95 374C403.793 381.94 406.337 389.998 409 398C409.905 400.719 412.088 404.853 410.212 407.57C407.845 411 400.72 411.6 397 412.72C384.7 416.425 372.528 421.128 360 424C360 416.432 357.546 403.596 361.742 397.015C365.334 391.384 374.051 391.893 376 386C369.646 386.018 365.219 387.288 360 391C360 387.726 361.864 367.818 354.313 372.086C351.421 373.721 352.006 378.234 352 381V407V515C361.775 511.653 360 505.062 360 496C360 483.997 355.931 463.165 360.603 452.133C363.53 445.224 383.305 442.674 390 440.706C392.796 439.884 397.6 437.349 399.825 440.361C402.402 443.85 402.605 450.814 403.449 455C405.472 465.033 407.933 474.978 410 485C426.84 478.379 402.969 451.138 409.198 439.419C411.096 435.848 418.418 434.829 422 434C420.871 426.462 412.888 417.276 422 413C418.154 396.374 411.108 380.166 405.667 364C400.823 349.606 397.247 334.478 384.999 324.329C365.527 308.192 336.685 304.268 315.105 291.471C311.608 289.397 310.451 285.583 307.725 282.754C302.714 277.551 296.311 273.858 292 268C311.96 260.435 330.152 234.167 332 213C341.771 213 350.118 211.597 356.2 202.996C365.649 189.634 358.908 168.639 342 166C342 152.02 340.323 136.84 342.3 123C345.449 100.964 364.383 79.0125 338.985 61.5988C335.338 59.0982 331.336 57.6499 327 57C330.93 51.9121 337.327 48.1704 344 49.544C347.05 50.1718 354.37 55.7062 356.953 52.3788C361.163 46.955 349.353 42.8899 346 42.3256C336.138 40.6661 328.044 44.3217 321 51C315.335 21.8899 289.981 22.2682 266 23.9105C247.339 25.1884 226.5 25.4701 208 22.8696C196.472 21.2493 185.849 19.4668 179.255 9.14813C178.056 7.27301 175.868 5.35919 173.599 7.04712C170.908 9.0484 172 15.1088 172 18C172.001 28.7286 174.138 38.0439 178 48Z" fill="#000B1D"/>
<path d="M180 24C180.274 25.4751 180.507 27.019 180.745 28.5941C181.761 35.3292 182.863 42.6343 187.637 47.5702C188.391 48.3492 190.193 49.0994 192.167 49.9213C195.767 51.4204 199.941 53.158 199.369 55.7438C198.899 57.8698 195.954 56.9185 194.417 56.4222C194.262 56.3721 194.121 56.3266 193.999 56.2894C187.808 54.4075 181.015 54.0457 176.214 59.1088C172.1 63.4466 169.796 72.6159 174.703 77.4005C175.292 77.9751 176.498 78.3973 177.785 78.8479C180.166 79.6818 182.825 80.6129 182.369 82.787C182.014 84.4813 177.403 84.9942 173.402 85.4392C171.08 85.6976 168.963 85.933 168.004 86.3634C155.455 91.9922 156.657 106.292 163 116H164C164.123 114.502 165.372 104.403 168.698 107.06C170.555 108.544 169.87 113.681 169.359 117.514C169.168 118.943 169.001 120.191 169 121V164H177C177 159.814 176.838 155.48 176.673 151.081C176.165 137.536 175.633 123.369 179.75 111C187.237 88.5045 213.096 77.9406 235 77L225 90C235.159 89.7903 244.191 86.4794 252.995 83.2522C266.171 78.4225 278.836 73.7802 294 80C295.19 78.2361 296.954 76.0065 298.926 73.5147C304.99 65.8503 313.017 55.7051 312.337 49C311.317 38.9364 300.381 31.4998 291 31.0401C279.268 30.4653 267.514 31.0201 255.753 31.5753C242.839 32.1849 229.915 32.7949 217 31.9105C209.128 31.3714 201.867 29.4207 194.596 27.4674C189.795 26.1776 184.989 24.8866 180 24Z" fill="white"/>
<path d="M180 24C180.274 25.4751 180.507 27.019 180.745 28.5941C181.761 35.3292 182.863 42.6343 187.637 47.5702C188.391 48.3492 190.193 49.0994 192.167 49.9213C195.767 51.4204 199.941 53.158 199.369 55.7438C198.899 57.8698 195.954 56.9185 194.417 56.4222C194.262 56.3721 194.121 56.3266 193.999 56.2894C187.808 54.4075 181.015 54.0457 176.214 59.1088C172.1 63.4466 169.796 72.6159 174.703 77.4005C175.292 77.9751 176.498 78.3973 177.785 78.8479C180.166 79.6818 182.825 80.6129 182.369 82.787C182.014 84.4813 177.403 84.9942 173.402 85.4392C171.08 85.6976 168.963 85.933 168.004 86.3634C155.455 91.9922 156.657 106.292 163 116H164C164.123 114.502 165.372 104.403 168.698 107.06C170.555 108.544 169.87 113.681 169.359 117.514C169.168 118.943 169.001 120.191 169 121V164H177C177 159.814 176.838 155.48 176.673 151.081C176.165 137.536 175.633 123.369 179.75 111C187.237 88.5045 213.096 77.9406 235 77L225 90C235.159 89.7903 244.191 86.4794 252.995 83.2522C266.171 78.4225 278.836 73.7802 294 80C295.19 78.2361 296.954 76.0065 298.926 73.5147C304.99 65.8503 313.017 55.7051 312.337 49C311.317 38.9364 300.381 31.4998 291 31.0401C279.268 30.4653 267.514 31.0201 255.753 31.5753C242.839 32.1849 229.915 32.7949 217 31.9105C209.128 31.3714 201.867 29.4207 194.596 27.4674C189.795 26.1776 184.989 24.8866 180 24Z" stroke="#060504"/>
<path d="M312 52L294 80C271.07 66.9661 248.543 88.989 225 90L235 77C227.943 77.1457 220.761 78.415 214 80.4383C173.09 92.6806 177 129.374 177 164C185.82 163.707 187.592 151.816 194.015 146.468C211.132 132.213 236.836 140.653 243 162L259 163C268.658 134.684 313.826 129.613 319 164H325C325 145.741 329.34 120.962 321.687 104C318.921 97.8697 314.523 92.1923 308 89.8195C305.608 88.9495 297.414 90.6547 297.113 87.794C296.795 84.7578 300.238 81.3068 301.806 79C306.886 71.5233 316.04 61.6276 312 52Z" fill="#FBFAFB"/>
<path d="M302 88C332.77 99.8666 325 137.129 325 164H334C334 146.346 335.865 127.52 333.714 110C333.087 104.897 325.958 91.3179 327.241 87.5424C328.367 84.2271 332.307 88.9459 333.046 90.0479C336.167 94.7049 337.747 100.465 338 106C349.368 92.2276 343.522 58.7584 320.04 64.3326C312.716 66.0712 305.457 81.7904 302 88Z" fill="white"/>
<path d="M288 111.468C285.095 112.031 276.494 116.9 283.153 119.307C288.184 121.126 293.691 117.813 299 120.457C302.285 122.093 306.547 127.907 310.681 126.338C315.685 124.44 310.064 118.192 307.981 116.532C302.504 112.171 294.888 110.133 288 111.468Z" fill="#060504"/>
<path d="M288 147.61C259.124 149.268 261.135 193.753 290 192.402C319.315 191.03 317.212 145.932 288 147.61Z" fill="#FBFAFB"/>
<path d="M296 168C291.936 167.814 291.293 165.842 291 162C289.27 162.275 287.604 162.451 286.034 163.318C270.773 171.743 299.401 186.451 296 168Z" fill="#060504"/>
<path d="M183 173H177C177 193.633 175.345 214.309 185.876 233C210.821 277.276 275.66 285.076 308.535 245C326.08 223.613 326 199.187 326 173H320C316.405 190.371 300.737 205.012 282 200.076C274.617 198.131 270.029 193.23 264 189C264 196.553 265.615 206.366 261.121 212.957C259.902 214.745 250.855 222.356 249.631 216.823C249.126 214.536 256.236 211.298 257.427 208.956C261.279 201.385 259.206 188.309 258.985 180C258.892 176.48 258.545 172.352 254.867 170.742C243.196 165.634 241.074 185.739 234.907 191.907C217.002 209.812 185.214 198.364 183 173Z" fill="#FBFAFB"/>
<path d="M334 173V184L346 182L336.434 190.279L334 205C357.888 204.8 357.888 173.2 334 173Z" fill="#FBFAFB"/>
<path d="M280 225C280.07 244.744 249.575 238.492 238 241V243C247.177 247.416 261.811 245.661 271 241.851C278.343 238.807 282.758 234.262 291 235C290.087 229.596 285.046 226.374 280 225Z" fill="#060504"/>
<path d="M281 274C259.871 283.825 242.342 277.127 221 275C221 285.265 217.416 303.777 222.028 313C225.661 320.267 234.286 325.7 240.09 331.184C243.36 334.275 249.104 342.793 254 342.793C258.883 342.793 264.837 334.163 268 331C272.197 326.803 278.285 322.374 280.972 317C282.719 313.505 282 308.787 282 305C282 295.94 284.507 282.358 281 274Z" fill="#FBFAFB"/>
<path d="M290 279C290 288.318 286.915 304.138 290.603 312.7C294.101 320.819 312.414 329.773 320 334C312.966 315.765 308.641 288.658 290 279Z" fill="#FBFAFB"/>
<path d="M185.498 300.955L185.428 300.182L184.753 300.565C176.845 305.064 167.875 308.405 158.821 311.778C157.101 312.419 155.378 313.061 153.659 313.712C142.914 317.781 132.326 322.209 123.691 328.984L123.691 328.984C114.259 336.387 110.865 346.245 107.283 356.652C106.809 358.028 106.332 359.415 105.837 360.806C104.506 364.548 103.03 368.367 101.527 372.242C101.447 372.447 101.368 372.651 101.289 372.856C99.8629 376.53 98.4179 380.254 97.0571 384.001C94.1845 391.91 91.6781 399.942 90.5054 407.88L90.4418 408.31L90.859 408.433L141.859 423.426L142.5 423.615V422.946C142.5 421.005 142.553 419.074 142.607 417.169L142.617 416.851C142.668 415.057 142.719 413.288 142.726 411.568C142.741 407.93 142.559 404.476 141.754 401.418C140.945 398.351 139.505 395.667 136.997 393.594C134.598 391.61 131.262 390.218 126.665 389.548C127.262 387.925 128.102 387.011 129.051 386.542C130.119 386.014 131.422 385.998 132.885 386.332C134.345 386.665 135.905 387.333 137.441 388.1C138.389 388.574 139.302 389.071 140.171 389.545C140.721 389.844 141.254 390.135 141.768 390.404L142.5 390.787V389.961C142.5 389.672 142.49 389.244 142.478 388.707C142.421 386.257 142.312 381.55 142.854 377.582C143.018 376.377 143.241 375.255 143.539 374.296C143.838 373.331 144.204 372.562 144.636 372.039C145.06 371.526 145.526 371.27 146.061 371.254C146.617 371.238 147.342 371.479 148.271 372.171L148.271 372.171C149.485 373.075 150.287 374.806 150.764 377.123C151.237 379.423 151.371 382.199 151.333 385.069C151.296 387.936 151.089 390.871 150.89 393.485C150.868 393.771 150.846 394.054 150.825 394.333C150.652 396.584 150.5 398.563 150.5 399.957V482.92C150.5 484.734 150.288 487.276 150.036 490.191L149.994 490.678C149.753 493.458 149.486 496.534 149.344 499.572C149.193 502.786 149.181 505.976 149.491 508.745C149.798 511.497 150.431 513.909 151.628 515.504C152.718 516.958 154.598 517.842 156.484 518.484C157.438 518.809 158.419 519.079 159.338 519.328C159.42 519.35 159.501 519.372 159.582 519.394C160.413 519.619 161.181 519.826 161.842 520.046L162 519.571L161.843 520.046C170.985 523.08 180.465 525.504 189.902 527.391C229.262 535.261 269.688 535.668 309.098 527.791C319.568 525.698 330.014 523.088 340.158 519.712C340.882 519.471 341.733 519.243 342.658 518.996L342.916 518.927C343.933 518.654 345.022 518.357 346.079 517.999C348.167 517.291 350.24 516.308 351.381 514.684C352.564 513 353.195 510.556 353.502 507.788C353.81 505.007 353.799 501.832 353.65 498.635C353.51 495.653 353.25 492.635 353.013 489.885C352.996 489.686 352.979 489.487 352.962 489.291C352.711 486.374 352.5 483.807 352.5 481.921V398.957C352.5 397.72 352.361 395.881 352.199 393.754C352.175 393.437 352.151 393.113 352.126 392.783C351.935 390.234 351.736 387.336 351.699 384.51C351.662 381.68 351.788 378.947 352.239 376.723C352.696 374.472 353.46 372.873 354.586 372.14L354.313 371.721L354.586 372.14C355.419 371.597 356.05 371.465 356.525 371.543C356.992 371.62 357.415 371.92 357.8 372.479C358.591 373.629 359.071 375.664 359.336 378.047C359.75 381.782 359.613 386.085 359.537 388.487C359.516 389.131 359.5 389.638 359.5 389.961V390.735L360.206 390.417C360.824 390.137 365.521 388.199 369.574 387.133C370.585 386.867 371.546 386.658 372.388 386.542C373.239 386.424 373.93 386.408 374.418 386.501C374.912 386.595 375.056 386.768 375.098 386.915C375.157 387.12 375.113 387.551 374.649 388.331C373.955 389.5 372.93 390.278 371.693 390.897C370.721 391.384 369.653 391.758 368.533 392.15C368.209 392.264 367.881 392.379 367.549 392.498C364.629 393.552 361.574 394.933 360.135 398.786C358.852 402.222 358.707 406.534 358.868 410.818C358.936 412.64 359.061 414.472 359.181 416.24C359.203 416.556 359.224 416.87 359.245 417.182C359.383 419.242 359.5 421.195 359.5 422.946V423.611L360.139 423.427L412.139 408.433L412.596 408.301L412.487 407.838C409.592 395.621 405.031 383.356 400.578 371.382C399.256 367.828 397.944 364.299 396.688 360.804C396.06 359.059 395.469 357.302 394.88 355.548C392.281 347.82 389.702 340.147 384.05 333.696C378.731 327.624 370.795 323.276 362.457 319.679C358.282 317.878 353.992 316.258 349.861 314.704L349.573 314.595C345.541 313.079 341.672 311.623 338.199 310.113C336.221 309.253 334.267 308.292 332.288 307.319C330.85 306.612 329.398 305.898 327.914 305.212C324.424 303.597 320.833 302.175 317.088 301.507L316.218 301.352L316.533 302.178L332.37 343.732C329.971 344.871 327.813 345.305 325.801 345.238C323.674 345.168 321.678 344.537 319.699 343.539C317.716 342.538 315.764 341.174 313.725 339.65C313.098 339.182 312.462 338.697 311.814 338.204C310.367 337.102 308.864 335.957 307.286 334.855C306.65 334.41 305.955 333.859 305.201 333.26C304.964 333.072 304.722 332.88 304.474 332.685C303.444 331.876 302.328 331.03 301.169 330.328C298.874 328.938 296.269 328.026 293.776 329.277C291.784 330.277 289.983 331.894 288.326 333.606C287.555 334.402 286.808 335.226 286.083 336.024L285.915 336.21C285.135 337.069 284.384 337.893 283.647 338.63C281.919 340.357 279.829 342.195 277.599 344.137C277.369 344.338 277.136 344.54 276.903 344.743C274.885 346.499 272.777 348.333 270.754 350.226C266.252 354.44 262.102 359.013 260.275 363.794C259.229 366.531 259.133 369.843 259.278 373.194C259.334 374.502 259.427 375.808 259.518 377.098C259.664 379.161 259.806 381.182 259.795 383.096C259.776 386.196 259.345 388.827 257.953 390.652C256.588 392.442 254.209 393.568 250.015 393.444C248.214 393.391 246.822 392.971 245.742 392.284C244.664 391.598 243.865 390.626 243.281 389.418C242.103 386.978 241.82 383.619 241.9 379.881C241.949 377.598 242.13 375.232 242.31 372.886C242.425 371.382 242.539 369.887 242.618 368.427C242.816 364.742 242.785 361.295 241.866 358.802L241.421 358.966L241.866 358.802C240.173 354.211 235.986 349.534 231.423 345.245C229.133 343.093 226.731 341.023 224.474 339.097C224.172 338.84 223.874 338.585 223.578 338.333C221.656 336.696 219.872 335.176 218.377 333.801C218.008 333.461 217.605 333.071 217.176 332.655C216.168 331.679 215.015 330.561 213.799 329.618C212.062 328.272 210.064 327.168 207.964 327.302L207.964 327.302C205.75 327.444 203.031 328.497 200.15 330.04C197.256 331.59 194.145 333.665 191.133 335.906C185.217 340.308 179.64 345.387 176.781 348.479H176.235C173.451 345.074 172.668 341.486 173.045 337.751C173.43 333.925 175.033 329.94 176.996 325.842C177.669 324.437 178.387 323.014 179.109 321.583C180.475 318.875 181.857 316.135 182.982 313.424C184.706 309.266 185.873 305.072 185.498 300.955Z" fill="white" stroke="white"/>
<path d="M214 323C217.351 327.757 221.637 331.866 226 335.715C229.071 338.423 232.095 341.111 235 344.001C236.446 345.439 251.625 357.701 248.654 347.165C247.774 344.044 243.215 341.186 241 338.996C234.687 332.755 223.22 315.939 214 323Z" fill="#FBFAFB"/>
<path d="M250 356L258 357.867L268 349L291 324C284.204 319.951 280.994 324.016 276 329C267.347 337.635 257.044 345.999 250 356Z" fill="#FBFAFB"/>
<path d="M248 361V388H255C255 378.284 258.437 365.427 248 361Z" fill="#FBFAFB"/>
<path d="M360 445L412 428L408 418L374 428.294L361.028 433.513L360 445Z" fill="#FBFAFB"/>
</g>
</g>
<defs>
<clipPath id="clip0_42_12226">
<rect width="499" height="533" fill="white"/>
</clipPath>
<clipPath id="clip1_42_12226">
<rect width="499" height="533" fill="white"/>
</clipPath>
</defs>
</svg>
