<svg width="207" height="177" viewBox="0 0 207 177" fill="none" xmlns="http://www.w3.org/2000/svg">
<path d="M158.565 166.967C155.459 166.981 152.399 166.304 149.337 166.296C118.262 166.218 87.187 166.267 56.1122 166.221C52.9801 166.216 49.8486 165.823 46.3702 165.399C33.767 159.671 24.8183 150.713 16.7078 140.684C6.46842 128.024 2.08361 113.648 0.417521 98.0239C-2.04179 74.9621 6.55674 55.5729 21.1118 37.8808C23.3658 35.141 36 20.5538 34 22.5C29.1147 22.024 26.5 21.7693 34 22.5C43.1299 13.1766 53.8552 8.61786 61.4599 3.83741C67.6137 -0.0309482 74.9674 0.351296 81.0173 3.20835C96.0165 10.2916 110.973 9.98538 126.634 5.93881C140.721 2.29895 153.123 4.68159 164.238 14.9224C181.41 30.7454 194.938 48.5869 201.905 70.288C208.166 89.7891 206.337 108.827 196.251 127.211C187.741 142.721 176.126 155.307 160.603 164.734C159.835 165.2 159.27 165.963 158.565 166.967Z" fill="white"/>
<ellipse cx="103.624" cy="141.452" rx="77.8057" ry="35.5482" fill="white"/>
<path d="M44 62.1064C44 53.8639 49.2766 48 58 48C66.7234 48 75 53.8639 75 62.1064C75 70.3489 69.6281 78.1719 60.9047 78.1719C52.1813 78.1719 44 70.3489 44 62.1064Z" fill="#060504"/>
<mask id="mask0_69_28843" style="mask-type:alpha" maskUnits="userSpaceOnUse" x="96" y="0" width="111" height="177">
<rect x="96.019" y="0.0874023" width="110.981" height="176.913" fill="white"/>
</mask>
<g mask="url(#mask0_69_28843)">
<path d="M159.134 168.829C155.999 168.842 152.911 168.154 149.822 168.146C118.464 168.066 87.1068 168.116 55.7494 168.07C52.5888 168.065 49.4288 167.665 45.9188 167.233C33.201 161.406 24.1709 152.294 15.9867 142.093C5.65421 129.214 1.22954 114.589 -0.451699 98.696C-2.93337 75.2365 5.74334 55.5128 20.4307 37.5155C22.7053 34.7284 25.0025 31.9582 28.1187 28.1726C28.7819 36.0923 27.9247 23.6378 32.8545 24.122C32.8545 24.122 35.2158 22.9974 38.4255 18.6883C41.6351 14.3792 53.4718 7.74775 61.1457 2.88483C67.3554 -1.05026 74.776 -0.66142 80.881 2.24491C96.0165 9.4504 111.109 9.13885 126.912 5.02248C141.127 1.31984 153.642 3.74357 164.858 14.1611C182.187 30.2569 195.837 48.4062 202.868 70.4817C209.186 90.3192 207.341 109.686 197.162 128.386C188.575 144.165 176.854 156.967 161.19 166.557C160.415 167.031 159.845 167.807 159.134 168.829Z" fill="#0C0C0C"/>
<ellipse cx="103.694" cy="140.839" rx="78.5131" ry="36.1614" fill="#0C0C0C"/>
<path d="M156.041 64.9943C156.041 73.379 150.716 79.344 141.914 79.344C133.111 79.344 124.759 73.379 124.759 64.9943C124.759 56.6096 130.18 48.6517 138.982 48.6517C147.785 48.6517 156.041 56.6096 156.041 64.9943Z" fill="white"/>
</g>
</svg>
